#N canvas 40 40 900 700 12;
#X text 20 16 modetest.pd -- headless mode-progression test. Sequences shrine-state 0-4 \, prints mode symbol \, mode-size \, and all 7 interval values for each. Run: pd -nogui -noaudio -stderr -path pd pd/test/modetest.pd;
#X obj 30 80 r scene-mode;
#X obj 30 110 print STATE-MODE;
#X obj 200 80 r mode-size;
#X obj 200 110 print MODE-SIZE;
#X obj 370 80 r mode-changed;
#X obj 370 120 t b b b b b b b;
#X msg 30 170 0;
#X obj 30 200 tabread mode-intervals;
#X obj 30 230 print INTERVAL-0;
#X msg 130 170 1;
#X obj 130 200 tabread mode-intervals;
#X obj 130 230 print INTERVAL-1;
#X msg 230 170 2;
#X obj 230 200 tabread mode-intervals;
#X obj 230 230 print INTERVAL-2;
#X msg 330 170 3;
#X obj 330 200 tabread mode-intervals;
#X obj 330 230 print INTERVAL-3;
#X msg 430 170 4;
#X obj 430 200 tabread mode-intervals;
#X obj 430 230 print INTERVAL-4;
#X msg 530 170 5;
#X obj 530 200 tabread mode-intervals;
#X obj 530 230 print INTERVAL-5;
#X msg 630 170 6;
#X obj 630 200 tabread mode-intervals;
#X obj 630 230 print INTERVAL-6;
#X obj 30 290 state-table;
#X obj 200 290 mode-table;
#X obj 600 310 print TEST-STATE;
#X obj 30 340 loadbang;
#X obj 30 380 t b b b b b b;
#X obj 30 430 del 200;
#X obj 30 470 t b b;
#X msg 30 510 0;
#X msg 130 510 \; shrine-state 0;
#X obj 200 430 del 500;
#X obj 200 470 t b b;
#X msg 200 510 1;
#X msg 300 510 \; shrine-state 1;
#X obj 370 430 del 800;
#X obj 370 470 t b b;
#X msg 370 510 2;
#X msg 470 510 \; shrine-state 2;
#X obj 540 430 del 1100;
#X obj 540 470 t b b;
#X msg 540 510 3;
#X msg 640 510 \; shrine-state 3;
#X obj 30 580 del 1400;
#X obj 30 620 t b b;
#X msg 30 660 4;
#X msg 130 660 \; shrine-state 4;
#X obj 700 430 del 1800;
#X msg 700 470 \; pd quit;
#X connect 2 0 3 0;
#X connect 4 0 5 0;
#X connect 6 0 7 0;
#X connect 7 6 8 0;
#X connect 8 0 9 0;
#X connect 9 0 10 0;
#X connect 7 5 11 0;
#X connect 11 0 12 0;
#X connect 12 0 13 0;
#X connect 7 4 14 0;
#X connect 14 0 15 0;
#X connect 15 0 16 0;
#X connect 7 3 17 0;
#X connect 17 0 18 0;
#X connect 18 0 19 0;
#X connect 7 2 20 0;
#X connect 20 0 21 0;
#X connect 21 0 22 0;
#X connect 7 1 23 0;
#X connect 23 0 24 0;
#X connect 24 0 25 0;
#X connect 7 0 26 0;
#X connect 26 0 27 0;
#X connect 27 0 28 0;
#X connect 32 0 33 0;
#X connect 33 5 34 0;
#X connect 33 4 38 0;
#X connect 33 3 42 0;
#X connect 33 2 46 0;
#X connect 33 1 50 0;
#X connect 33 0 54 0;
#X connect 34 0 35 0;
#X connect 35 1 36 0;
#X connect 36 0 31 0;
#X connect 35 0 37 0;
#X connect 38 0 39 0;
#X connect 39 1 40 0;
#X connect 40 0 31 0;
#X connect 39 0 41 0;
#X connect 42 0 43 0;
#X connect 43 1 44 0;
#X connect 44 0 31 0;
#X connect 43 0 45 0;
#X connect 46 0 47 0;
#X connect 47 1 48 0;
#X connect 48 0 31 0;
#X connect 47 0 49 0;
#X connect 50 0 51 0;
#X connect 51 1 52 0;
#X connect 52 0 31 0;
#X connect 51 0 53 0;
#X connect 54 0 55 0;
