#N canvas 0 0 960 720 12;
#X text 20 16 osctest.pd -- snapshot each bus ~1.5s after start. Run pd -path .. then send_nodes.py.;
#X obj 30 60 osc-receive;
#X obj 30 120 r cap-0;
#X obj 30 150 f;
#X obj 30 180 print cap-0;
#X obj 210 120 r cap-1;
#X obj 210 150 f;
#X obj 210 180 print cap-1;
#X obj 390 120 r cap-2;
#X obj 390 150 f;
#X obj 390 180 print cap-2;
#X obj 570 120 r cap-3;
#X obj 570 150 f;
#X obj 570 180 print cap-3;
#X obj 750 120 r gsr-mag-0;
#X obj 750 150 f;
#X obj 750 180 print gsr-mag-0;
#X obj 30 250 r gsr-mag-1;
#X obj 30 280 f;
#X obj 30 310 print gsr-mag-1;
#X obj 210 250 r gsr-mag-2;
#X obj 210 280 f;
#X obj 210 310 print gsr-mag-2;
#X obj 390 250 r gsr-mag-3;
#X obj 390 280 f;
#X obj 390 310 print gsr-mag-3;
#X obj 570 250 r gsr-mag-4;
#X obj 570 280 f;
#X obj 570 310 print gsr-mag-4;
#X obj 750 250 r gsr-mag-5;
#X obj 750 280 f;
#X obj 750 310 print gsr-mag-5;
#X obj 700 60 loadbang;
#X obj 700 90 delay 1500;
#X obj 820 60 loadbang;
#X obj 820 90 delay 2200;
#X msg 820 120 \; pd quit;
#X connect 32 0 33 0;
#X connect 34 0 35 0;
#X connect 35 0 36 0;
#X connect 2 0 3 1;
#X connect 3 0 4 0;
#X connect 33 0 3 0;
#X connect 5 0 6 1;
#X connect 6 0 7 0;
#X connect 33 0 6 0;
#X connect 8 0 9 1;
#X connect 9 0 10 0;
#X connect 33 0 9 0;
#X connect 11 0 12 1;
#X connect 12 0 13 0;
#X connect 33 0 12 0;
#X connect 14 0 15 1;
#X connect 15 0 16 0;
#X connect 33 0 15 0;
#X connect 17 0 18 1;
#X connect 18 0 19 0;
#X connect 33 0 18 0;
#X connect 20 0 21 1;
#X connect 21 0 22 0;
#X connect 33 0 21 0;
#X connect 23 0 24 1;
#X connect 24 0 25 0;
#X connect 33 0 24 0;
#X connect 26 0 27 1;
#X connect 27 0 28 0;
#X connect 33 0 27 0;
#X connect 29 0 30 1;
#X connect 30 0 31 0;
#X connect 33 0 30 0;
