#N canvas 0 0 560 620 12;
#X text 22 10 cap-trigger.pd -- threshold note on/off from cap presence.;
#X text 22 28 \$1 = threshold. Inlet 0: cap (0-1). Inlet 1: MIDI note (cold store).;
#X text 22 46 Outlet 0: pitch+velocity pair. Outlet 1: smoothed cap passthrough.;
#X obj 82 82 inlet;
#X obj 226 80 inlet;
#X text 22 82 sensor;
#X text 182 81 note;
#X obj 82 115 sig~;
#X obj 82 145 lop~ 2;
#X obj 82 175 snapshot~;
#X obj 170 145 loadbang;
#X obj 170 175 metro 50;
#X obj 82 215 trigger f f;
#X obj 82 265 moses \$1;
#X msg 75 303 0;
#X msg 139 301 1;
#X obj 93 341 change;
#X obj 97 381 sel 1;
#X obj 107 451 float;
#X obj 207 451 float;
#X msg 107 491 \$1 100;
#X msg 207 491 \$1 0;
#X obj 155 541 outlet;
#X obj 419 271 outlet;
#X obj 177 411 t b;
#X connect 3 0 7 0;
#X connect 4 0 18 1;
#X connect 4 0 19 1;
#X connect 7 0 8 0;
#X connect 8 0 9 0;
#X connect 9 0 12 0;
#X connect 10 0 11 0;
#X connect 11 0 9 0;
#X connect 12 0 13 0;
#X connect 12 1 23 0;
#X connect 13 0 14 0;
#X connect 13 1 15 0;
#X connect 14 0 16 0;
#X connect 15 0 16 0;
#X connect 16 0 17 0;
#X connect 17 0 18 0;
#X connect 17 1 24 0;
#X connect 18 0 20 0;
#X connect 19 0 21 0;
#X connect 20 0 22 0;
#X connect 21 0 22 0;
#X connect 24 0 19 0;
