#N canvas 0 0 450 450 12;
#X text 20 80 cap-intensity.pd -- smoothed non-linear 0-1 cap to MIDI CC 11.;
#X text 20 98 Gamma < 1 compresses upper range. Lower alpha = smoother.;
#X obj 80 140 inlet;
#X obj 80 175 t f b;
#X obj 200 175 f 0;
#X obj 80 215 pack 0 0 0;
#X obj 80 250 expr \$f2 + \$f3 * (\$f1 - \$f2);
#X obj 80 285 t f f;
#X obj 80 325 pow;
#X obj 80 360 * 127;
#X obj 80 395 int;
#X obj 80 430 change;
#X msg 80 465 ctl \$1 11 1;
#X obj 80 500 outlet;
#X obj 10 35 nbx 5 18 0.01 2 0.01 0 empty empty Gamma 60 7 0 10 #fcfcfc #000000 #000000 1 256;
#X obj 10 65 nbx 5 18 0.001 1 0.001 0 empty empty Alpha 60 7 0 10 #fcfcfc #000000 #000000 0.05 256;
#X obj 150 20 loadbang;
#X obj 150 50 else/args;
#X obj 150 80 unpack 0 0;
#X msg 150 110 set \$1;
#X msg 220 110 set \$1;
#X obj 150 140 else/pack2 0 0;
#X connect 2 0 3 0;
#X connect 3 1 4 0;
#X connect 3 0 5 0;
#X connect 4 0 5 1;
#X connect 5 0 6 0;
#X connect 6 0 7 0;
#X connect 7 1 4 1;
#X connect 7 0 8 0;
#X connect 8 0 9 0;
#X connect 9 0 10 0;
#X connect 10 0 11 0;
#X connect 11 0 12 0;
#X connect 12 0 13 0;
#X connect 14 0 8 1;
#X connect 15 0 5 2;
#X connect 16 0 17 0;
#X connect 17 0 18 0;
#X connect 18 0 19 0;
#X connect 18 1 20 0;
#X connect 19 0 14 0;
#X connect 20 0 15 0;
#X connect 19 0 21 0;
#X connect 20 0 21 1;
#X connect 14 0 21 0;
#X connect 15 0 21 1;
#X connect 21 0 17 0;
#X coords 0 0 1 1 120 95 1 0 0;
