#N canvas 0 0 560 520 12;
#X text 22 10 cap-trigger.pd -- detect touch/release edges from cap signal.;
#X text 22 28 \$1 = threshold. Inlet 0: cap (0-1).;
#X text 22 46 Outlet 0: 1 (touch) / 0 (release). Outlet 1: smoothed intensity (0-1).;
#X obj 82 82 inlet;
#X text 22 82 sensor;
#X obj 82 115 sig~;
#X obj 82 145 lop~ 0.5;
#X obj 82 175 snapshot~;
#X obj 170 145 loadbang;
#X obj 170 175 metro 50;
#X obj 82 215 trigger f f;
#X obj 82 265 moses \$1;
#X msg 75 303 0;
#X msg 139 301 1;
#X obj 93 341 change;
#X obj 93 381 outlet;
#X obj 419 271 outlet;
#X connect 3 0 5 0;
#X connect 5 0 6 0;
#X connect 6 0 7 0;
#X connect 8 0 9 0;
#X connect 9 0 7 0;
#X connect 7 0 10 0;
#X connect 10 0 11 0;
#X connect 11 0 12 0;
#X connect 11 1 13 0;
#X connect 12 0 14 0;
#X connect 13 0 14 0;
#X connect 14 0 15 0;
#X connect 10 1 16 0;
