#N canvas 0 0 450 300 12;
#X obj 10 10 inlet~;
#X obj 10 40 vsl 20 140 0 1 0 1 empty empty Ch1 0 -9 0 10 #fcfcfc #000000 #000000 0 1;
#X obj 50 40 vsl 20 140 0 1 0 1 empty empty Ch2 0 -9 0 10 #fcfcfc #000000 #000000 0 1;
#X obj 90 40 vsl 20 140 0 1 0 1 empty empty Ch3 0 -9 0 10 #fcfcfc #000000 #000000 0 1;
#X obj 130 40 vsl 20 140 0 1 0 1 empty empty Ch4 0 -9 0 10 #fcfcfc #000000 #000000 0 1;
#X obj 10 210 *~;
#X obj 50 210 *~;
#X obj 90 210 *~;
#X obj 130 210 *~;
#X obj 10 250 throw~ ch-1~;
#X obj 50 250 throw~ ch-2~;
#X obj 90 250 throw~ ch-3~;
#X obj 130 250 throw~ ch-4~;
#X connect 0 0 5 0;
#X connect 0 0 6 0;
#X connect 0 0 7 0;
#X connect 0 0 8 0;
#X connect 1 0 5 1;
#X connect 2 0 6 1;
#X connect 3 0 7 1;
#X connect 4 0 8 1;
#X connect 5 0 9 0;
#X connect 6 0 10 0;
#X connect 7 0 11 0;
#X connect 8 0 12 0;
#X coords 0 0 1 1 170 200 1 0 0;
