#N canvas 0 0 500 300 12;
#X obj 10 10 inlet~;
#X obj 10 40 vsl 20 140 0 1 0 0 empty empty Ch1 0 -9 0 10 #fcfcfc #000000 #000000 0 1;
#X obj 50 40 vsl 20 140 0 1 0 0 empty empty Ch2 0 -9 0 10 #fcfcfc #000000 #000000 0 1;
#X obj 90 40 vsl 20 140 0 1 0 0 empty empty Ch3 0 -9 0 10 #fcfcfc #000000 #000000 0 1;
#X obj 130 40 vsl 20 140 0 1 0 0 empty empty Ch4 0 -9 0 10 #fcfcfc #000000 #000000 0 1;
#X obj 10 210 *~;
#X obj 50 210 *~;
#X obj 90 210 *~;
#X obj 130 210 *~;
#X obj 10 250 throw~ ch-1~;
#X obj 50 250 throw~ ch-2~;
#X obj 90 250 throw~ ch-3~;
#X obj 130 250 throw~ ch-4~;
#X obj 200 20 loadbang;
#X obj 200 50 else/args;
#X obj 200 80 unpack 0 0 0 0;
#X msg 200 110 set \$1;
#X msg 250 110 set \$1;
#X msg 300 110 set \$1;
#X msg 350 110 set \$1;
#X obj 200 180 else/pack2 0 0 0 0;
#X connect 0 0 5 0;
#X connect 0 0 6 0;
#X connect 0 0 7 0;
#X connect 0 0 8 0;
#X connect 1 0 5 1;
#X connect 2 0 6 1;
#X connect 3 0 7 1;
#X connect 4 0 8 1;
#X connect 5 0 9 0;
#X connect 6 0 10 0;
#X connect 7 0 11 0;
#X connect 8 0 12 0;
#X connect 13 0 14 0;
#X connect 14 0 15 0;
#X connect 15 0 16 0;
#X connect 15 1 17 0;
#X connect 15 2 18 0;
#X connect 15 3 19 0;
#X connect 16 0 1 0;
#X connect 17 0 2 0;
#X connect 18 0 3 0;
#X connect 19 0 4 0;
#X connect 16 0 20 0;
#X connect 17 0 20 1;
#X connect 18 0 20 2;
#X connect 19 0 20 3;
#X connect 1 0 20 0;
#X connect 2 0 20 1;
#X connect 3 0 20 2;
#X connect 4 0 20 3;
#X connect 20 0 14 0;
#X coords 0 0 1 1 170 200 1 0 0;
