#N canvas 0 0 820 640 12;
#X text 20 16 drone.pd -- additive presence drone.;
#X text 20 34 inlet 0: cap presence (0-1\, control). inlet 1: base frequency (Hz).;
#X text 20 52 Organ-ish partial stack + celeste shimmer. TODO: cap-fluctuation -> detune wobble.;
#X obj 300 90 inlet;
#X obj 30 90 inlet;
#X obj 300 120 sig~;
#X connect 3 0 5 0;
#X obj 300 150 lop~ 2;
#X connect 5 0 6 0;
#X obj 30 170 * 0.5;
#X connect 4 0 7 0;
#X obj 30 200 osc~;
#X connect 7 0 8 0;
#X obj 30 230 *~ 0.5;
#X connect 8 0 9 0;
#X obj 140 200 osc~;
#X connect 4 0 10 0;
#X obj 140 230 *~ 1.0;
#X connect 10 0 11 0;
#X obj 250 170 * 2.0;
#X connect 4 0 12 0;
#X obj 250 200 osc~;
#X connect 12 0 13 0;
#X obj 250 230 *~ 0.6;
#X connect 13 0 14 0;
#X obj 360 170 * 3.0;
#X connect 4 0 15 0;
#X obj 360 200 osc~;
#X connect 15 0 16 0;
#X obj 360 230 *~ 0.4;
#X connect 16 0 17 0;
#X obj 470 170 * 4.0;
#X connect 4 0 18 0;
#X obj 470 200 osc~;
#X connect 18 0 19 0;
#X obj 470 230 *~ 0.25;
#X connect 19 0 20 0;
#X obj 580 170 + 1.5;
#X connect 4 0 21 0;
#X obj 580 200 osc~;
#X connect 21 0 22 0;
#X obj 580 230 *~ 0.7;
#X connect 22 0 23 0;
#X obj 30 290 +~;
#X connect 9 0 24 0;
#X connect 11 0 24 1;
#X obj 30 320 +~;
#X connect 24 0 25 0;
#X connect 14 0 25 1;
#X obj 30 350 +~;
#X connect 25 0 26 0;
#X connect 17 0 26 1;
#X obj 30 380 +~;
#X connect 26 0 27 0;
#X connect 20 0 27 1;
#X obj 30 410 +~;
#X connect 27 0 28 0;
#X connect 23 0 28 1;
#X obj 30 450 *~ 0.12;
#X connect 28 0 29 0;
#X obj 30 485 *~;
#X connect 29 0 30 0;
#X connect 6 0 30 1;
#X obj 30 525 outlet~;
#X connect 30 0 31 0;
