#N canvas 0 0 700 320 12;
#X text 20 16 heartbeat.pd -- STUB. Until the 1-3 Hz gsr-stdev pulse signal is bench-validated\, output constant 60 BPM and zero detune (see Voice_Architecture / Pd_Build_Plan).;
#X obj 30 100 loadbang;
#X msg 30 135 60;
#X obj 30 170 outlet;
#X msg 150 135 0;
#X obj 150 170 outlet;
#X connect 1 0 2 0;
#X connect 1 0 4 0;
#X connect 2 0 3 0;
#X connect 4 0 5 0;
