#N canvas 0 0 850 750 12;
#X text 20 16 heartbeat.pd -- extract heartbeat rate (Hz) from cap signal for chorus~/phaser~ rate.;
#X obj 80 55 inlet;
#X obj 80 700 outlet;
#X obj 80 90 f;
#X obj 220 55 loadbang;
#X obj 220 90 metro 20;
#N canvas 0 0 450 350 \$0-lp4 0;
#X obj 80 30 inlet;
#X obj 80 280 outlet;
#X obj 80 70 t f b;
#X obj 200 110 f 0;
#X obj 80 150 pack 0 0;
#X obj 80 190 expr \$f2 + 0.395 * (\$f1 - \$f2);
#X obj 80 230 t f f;
#X connect 0 0 2 0;
#X connect 2 1 3 0;
#X connect 2 0 4 0;
#X connect 3 0 4 1;
#X connect 4 0 5 0;
#X connect 5 0 6 0;
#X connect 6 1 3 1;
#X connect 6 0 1 0;
#X restore 80 165 pd \$0-lp4;
#N canvas 0 0 450 350 \$0-lp025 0;
#X obj 80 30 inlet;
#X obj 80 280 outlet;
#X obj 80 70 t f b;
#X obj 200 110 f 0;
#X obj 80 150 pack 0 0;
#X obj 80 190 expr \$f2 + 0.031 * (\$f1 - \$f2);
#X obj 80 230 t f f;
#X connect 0 0 2 0;
#X connect 2 1 3 0;
#X connect 2 0 4 0;
#X connect 3 0 4 1;
#X connect 4 0 5 0;
#X connect 5 0 6 0;
#X connect 6 1 3 1;
#X connect 6 0 1 0;
#X restore 280 165 pd \$0-lp025;
#X obj 80 210 -;
#X obj 80 250 t f f;
#X obj 200 285 f 0;
#X obj 200 320 < 0;
#X obj 80 320 >= 0;
#X obj 80 355 *;
#X obj 80 390 sel 1;
#X obj 80 440 timer;
#X obj 80 480 t b b;
#X obj 180 480 expr 1000 / max(\$f1 \, 1);
#X obj 80 530 clip 0.25 3;
#N canvas 0 0 450 400 \$0-smooth 0;
#X obj 80 30 inlet;
#X obj 80 320 outlet;
#X obj 80 70 t f b;
#X obj 200 110 f 0;
#X obj 80 150 pack 0 0;
#X obj 80 190 expr \$f2 + 0.2 * (\$f1 - \$f2);
#X obj 80 230 t f f;
#X obj 80 270 inlet;
#X connect 0 0 2 0;
#X connect 2 1 3 0;
#X connect 2 0 4 0;
#X connect 3 0 4 1;
#X connect 4 0 5 0;
#X connect 5 0 6 0;
#X connect 6 1 3 1;
#X connect 6 0 1 0;
#X connect 7 0 3 1;
#X restore 80 580 pd \$0-smooth;
#X obj 300 390 delay 4000;
#X msg 300 430 0;
#X text 180 210 bandpass = lp4 - lp025;
#X text 180 355 positive zero crossing;
#X text 300 480 period to Hz;
#X text 380 430 no signal for 4s -> output 0;
#X obj 80 125 t f f;
#X obj 300 470 t f f;
#X obj 300 700 outlet;
#X text 340 700 bandpass debug;
#X connect 1 0 3 1;
#X connect 4 0 5 0;
#X connect 5 0 3 0;
#X connect 3 0 26 0;
#X connect 26 1 7 0;
#X connect 26 0 6 0;
#X connect 6 0 8 0;
#X connect 7 0 8 1;
#X connect 8 0 9 0;
#X connect 9 1 10 0;
#X connect 9 0 12 0;
#X connect 10 0 11 0;
#X connect 11 0 13 1;
#X connect 12 0 13 0;
#X connect 13 0 14 0;
#X connect 14 0 16 0;
#X connect 14 0 20 0;
#X connect 16 1 15 1;
#X connect 16 0 15 0;
#X connect 15 0 17 0;
#X connect 17 0 18 0;
#X connect 18 0 19 0;
#X connect 19 0 2 0;
#X connect 20 0 21 0;
#X connect 21 0 27 0;
#X connect 27 1 19 1;
#X connect 27 0 2 0;
#X connect 8 0 28 0;
