#N canvas 326 120 1607 853 12;
#X obj 1005 502 master;
#N canvas 0 39 1710 1040 brent 0;
#X obj 205 25 inlet;
#X obj 753 28 inlet;
#X obj 22 8 loadbang;
#X obj 296 652 outlet~;
#X obj 296 546 else/chorus~;
#X text 714 28 Rate;
#X text 167 25 Note;
#X obj 296 584 else/plate.rev~;
#X text 259 25 Intensity;
#X obj 337 25 inlet;
#X obj 213 97 print brent;
#X obj 598 292 vsl 20 170 0 5 0 1 empty empty Depth 0 -9 0 12 #fcfcfc #000000 #000000 13100 1;
#X obj 648 296 vsl 20 170 0 1 0 1 empty empty Wet 0 -9 0 12 #fcfcfc #000000 #000000 11400 1;
#X obj 22 47 t b b;
#X obj 101 8 bng 20 250 50 0 empty empty empty 0 -10 0 12 #fcfcfc #000000 #000000;
#X obj 220 425 else/phaser~ 8 0.5 0.5;
#X obj 277 336 else/rescale~ 100 800;
#X obj 330 247 print pgm;
#X obj 132 205 else/sfont~ ../sounds/FluidR3_GM.sf2;
#X obj 36 101 pgm 0 44;
#X obj 278 289 osc~ 0.1;
#X msg 132 155 note \$1 \$2 1;
#X obj 336 93 cap-intensity 0.5 0.05;
#X connect 0 0 10 0;
#X connect 0 0 21 0;
#X connect 1 0 4 1;
#X connect 4 0 7 0;
#X connect 7 0 3 0;
#X connect 9 0 22 0;
#X connect 11 0 4 2;
#X connect 12 0 4 3;
#X connect 15 0 4 0;
#X connect 16 0 15 1;
#X connect 18 0 15 0;
#X connect 18 2 17 0;
#X connect 19 0 18 0;
#X connect 20 0 16 0;
#X connect 21 0 18 0;
#X connect 22 0 18 0;
#X restore 107 463 pd brent;
#N canvas 413 39 1297 1040 jeanne 0;
#X obj 205 25 inlet;
#X obj 753 28 inlet;
#X obj 283 1148 outlet~;
#X obj 267 553 else/chorus~;
#X text 714 28 Rate;
#X text 167 25 Note;
#X text 259 25 Intensity;
#X obj 337 25 inlet;
#X obj 602 264 vsl 20 170 0 5 0 1 empty empty Depth 0 -9 0 12 #fcfcfc #000000 #000000 4200 1;
#X obj 647 295 vsl 20 170 0 1 0 1 empty empty Wet 0 -9 0 12 #fcfcfc #000000 #000000 10600 1;
#X obj 277 336 else/rescale~ 100 800;
#X obj 132 205 else/sfont~ ../sounds/FluidR3_GM.sf2;
#X obj 215 97 print jeanne;
#X obj 330 247 print pgm;
#X obj 220 425 else/phaser~ 8 0.1 0.25;
#X obj 401 288 osc~ 0.1;
#X obj 265 657 plate-rev 0 0 0 0 0;
#X obj 257 902 notch 1000 1;
#X obj 337 68 cap-intensity 1 0.05;
#X obj 21 19 pgm 1 24;
#X msg 132 155 note \$1 127 1;
#X connect 0 0 12 0;
#X connect 0 0 20 0;
#X connect 1 0 3 1;
#X connect 1 0 15 0;
#X connect 3 0 16 0;
#X connect 7 0 18 0;
#X connect 8 0 3 2;
#X connect 9 0 3 3;
#X connect 10 0 14 1;
#X connect 11 0 14 0;
#X connect 11 2 13 0;
#X connect 14 0 3 0;
#X connect 15 0 10 0;
#X connect 16 0 17 0;
#X connect 17 0 2 0;
#X connect 18 0 11 0;
#X connect 19 0 11 0;
#X connect 20 0 11 0;
#X restore 400 370 pd jeanne;
#X obj 305 8 osc-receive;
#X obj 74 73 r cap-0;
#X obj 50 110 cap-trigger 0.2;
#X obj 178 45 loadbang;
#X obj 253 265 r cap-0;
#X obj 248 322 heartbeat;
#X obj 304 84 r cap-1;
#X obj 485 267 r cap-1;
#X obj 485 317 heartbeat;
#X obj 727 315 heartbeat;
#X obj 611 60 r cap-2;
#X obj 727 265 r cap-2;
#N canvas 764 69 1315 1040 schuyler 1;
#X obj 205 25 inlet;
#X obj 753 28 inlet;
#X obj 265 943 outlet~;
#X obj 267 553 else/chorus~;
#X text 714 28 Rate;
#X text 167 25 Note;
#X text 259 25 Intensity;
#X obj 337 25 inlet;
#X obj 610 293 vsl 20 170 0 5 0 1 empty empty Depth 0 -9 0 12 #fcfcfc #000000 #000000 5600 1;
#X obj 677 330 vsl 20 170 0 1 0 1 empty empty Wet 0 -9 0 12 #fcfcfc #000000 #000000 1500 0;
#X obj 132 205 else/sfont~ ../sounds/FluidR3_GM.sf2;
#X obj 330 247 print pgm;
#X msg 36 101 bank 0 1 \, pgm \$1 1;
#X obj 37 60 nbx 5 18 0 128 0 1 empty empty Pgm 0 -10 0 12 #fcfcfc #000000 #000000 95 256;
#X obj 35 15 loadbang;
#X obj 215 97 print schuyler;
#X obj 408 67 cap-intensity 0.5 0.05;
#X obj 49 229 vsl 20 170 0 100 0 1 empty empty Depth 0 -9 0 12 #fcfcfc #000000 #000000 1700 0;
#X obj 173 443 else/flanger~ 1 10 0.1;
#X obj 108 892 else/plate.rev~;
#X obj 166 560 vsl 20 170 0 1 0 1 empty empty Size 0 -9 0 12 #fcfcfc #000000 #000000 1400 1;
#X msg 166 765 size \$1;
#X obj 88 560 vsl 20 170 10 1000 1 1 empty empty Delay 0 -9 0 12 #fcfcfc #000000 #000000 5100 0;
#X msg 90 763 pre \$1;
#X obj 445 314 * 0.25;
#X msg 132 155 note \$1 127 1;
#X msg 161 825 clear;
#X connect 0 0 25 0;
#X connect 0 0 15 0;
#X connect 1 0 24 0;
#X connect 3 0 2 0;
#X connect 7 0 16 0;
#X connect 8 0 3 2;
#X connect 9 0 3 3;
#X connect 10 0 2 0;
#X connect 10 2 11 0;
#X connect 12 0 10 0;
#X connect 13 0 12 0;
#X connect 14 0 13 0;
#X connect 17 0 18 2;
#X connect 20 0 21 0;
#X connect 21 0 19 0;
#X connect 22 0 23 0;
#X connect 23 0 19 0;
#X connect 24 0 18 1;
#X connect 24 0 3 1;
#X connect 25 0 10 0;
#X connect 26 0 19 0;
#X restore 642 368 pd schuyler;
#X msg 754 83 octave 0;
#X obj 426 43 loadbang;
#X obj 721 30 loadbang;
#X msg 487 120 octave 1;
#X obj 293 132 cap-trigger 0.1;
#X obj 592 108 cap-trigger 0.1;
#X obj 1200 12 loadbang;
#X msg 1200 52 \; pd dsp 1;
#X obj 105 624 channel-send 0.94964 0 0 0;
#X obj 367 621 channel-send 0 0.834532 0 0;
#X obj 591 630 channel-send 0 0.705036 0.935252 0.884892;
#X obj 73 232 note-send;
#X obj 177 189 melodic-voice 0;
#X obj 381 238 note-send;
#X obj 480 212 melodic-voice 1;
#X obj 606 223 note-send;
#X obj 751 206 melodic-voice 2;
#X obj 1000 430 state-table;
#X obj 1000 470 mode-table;
#X obj 1180 430 r bpm;
#X obj 1180 470 clock;
#X obj 24 46 nbx 5 17 -1e+37 1e+37 0 0 empty empty empty 0 -10 0 12 #fcfcfc #000000 #000000 0 256;
#X obj 23 7 tgl 19 0 empty empty empty 0 -10 0 12 #fcfcfc #000000 #000000 0 1;
#X msg 180 85 octave 1;
#X obj 272 44 nbx 5 17 -1e+37 1e+37 0 0 empty empty empty 0 -10 0 12 #fcfcfc #000000 #000000 0 256;
#X obj 271 5 tgl 19 0 empty empty empty 0 -10 0 12 #fcfcfc #000000 #000000 0 1;
#X obj 530 46 nbx 5 17 -1e+37 1e+37 0 0 empty empty empty 0 -10 0 12 #fcfcfc #000000 #000000 0 256;
#X obj 529 7 tgl 19 0 empty empty empty 0 -10 0 12 #fcfcfc #000000 #000000 0 1;
#X obj 97 157 nbx 5 17 -1e+37 1e+37 0 0 empty empty empty 0 -10 0 12 #fcfcfc #000000 #000000 0 256;
#X obj 396 174 nbx 5 17 -1e+37 1e+37 0 0 empty empty empty 0 -10 0 12 #fcfcfc #000000 #000000 0 256;
#X connect 1 0 24 0;
#X connect 2 0 25 0;
#X connect 4 0 5 0;
#X connect 5 0 27 0;
#X connect 5 1 44 0;
#X connect 6 0 39 0;
#X connect 7 0 8 0;
#X connect 8 0 1 2;
#X connect 9 0 20 0;
#X connect 10 0 11 0;
#X connect 11 0 2 2;
#X connect 12 0 15 2;
#X connect 13 0 21 0;
#X connect 14 0 12 0;
#X connect 15 0 26 0;
#X connect 16 0 32 0;
#X connect 17 0 19 0;
#X connect 18 0 16 0;
#X connect 19 0 30 0;
#X connect 20 0 29 0;
#X connect 20 1 45 0;
#X connect 21 0 31 0;
#X connect 21 1 31 1;
#X connect 22 0 23 0;
#X connect 27 0 1 0;
#X connect 27 1 28 0;
#X connect 28 0 27 2;
#X connect 29 0 2 0;
#X connect 29 1 30 0;
#X connect 30 0 29 2;
#X connect 31 0 15 0;
#X connect 31 1 32 0;
#X connect 32 0 31 2;
#X connect 35 0 36 0;
#X connect 37 0 5 0;
#X connect 38 0 37 0;
#X connect 39 0 28 0;
#X connect 40 0 20 0;
#X connect 41 0 40 0;
#X connect 42 0 21 0;
#X connect 43 0 42 0;
#X connect 44 0 27 1;
#X connect 45 0 29 1;
