#N canvas 135 219 1710 1040 12;
#X obj 341 785 master;
#N canvas 195 39 870 1040 brent 0;
#X obj 205 25 inlet;
#X obj 753 28 inlet;
#X obj 296 652 outlet~;
#X obj 296 546 else/chorus~;
#X text 714 28 Rate;
#X text 167 25 Note;
#X obj 296 584 else/plate.rev~;
#X text 259 25 Intensity;
#X obj 337 25 inlet;
#X obj 177 168 print brent;
#X obj 598 292 vsl 20 170 0 5 0 1 empty empty Depth 0 -9 0 12 #fcfcfc #000000 #000000 15600 1;
#X obj 648 296 vsl 20 170 0 1 0 1 empty empty Wet 0 -9 0 12 #fcfcfc #000000 #000000 11400 1;
#X obj 220 425 else/phaser~ 8 0.5 0.5;
#X obj 277 336 else/rescale~ 100 800;
#X obj 132 205 else/sfont~ ../sounds/FluidR3_GM.sf2;
#X obj 336 93 cap-intensity 0.5 0.05;
#X msg 165 128 note \$1 \$2 1;
#X obj 330 247 print brent;
#X obj 20 231 print brent;
#X obj 48 60 loadbang;
#X obj 17 20 bng 19 250 50 0 empty empty empty 0 -10 0 12 #fcfcfc #000000 #000000;
#X obj 170 296 +~;
#X msg 15 115 bank 1 1 \, pgm 16 1;
#X obj 278 289 osc~ 0.3;
#X connect 0 0 16 0;
#X connect 1 0 3 1;
#X connect 3 0 6 0;
#X connect 6 0 2 0;
#X connect 8 0 15 0;
#X connect 10 0 3 2;
#X connect 11 0 3 3;
#X connect 12 0 3 0;
#X connect 13 0 12 1;
#X connect 14 0 21 0;
#X connect 14 1 21 1;
#X connect 14 2 17 0;
#X connect 15 0 14 0;
#X connect 16 0 14 0;
#X connect 16 0 9 0;
#X connect 19 0 22 0;
#X connect 20 0 22 0;
#X connect 21 0 12 0;
#X connect 22 0 18 0;
#X connect 22 0 14 0;
#X connect 23 0 13 0;
#X restore 231 446 pd brent;
#N canvas 65 79 842 1040 jeanne 0;
#X obj 205 25 inlet;
#X obj 753 28 inlet;
#X obj 283 1148 outlet~;
#X obj 267 553 else/chorus~;
#X text 714 28 Rate;
#X text 167 25 Note;
#X text 259 25 Intensity;
#X obj 337 25 inlet;
#X obj 602 264 vsl 20 170 0 5 0 1 empty empty Depth 0 -9 0 12 #fcfcfc #000000 #000000 4200 1;
#X obj 647 295 vsl 20 170 0 1 0 1 empty empty Wet 0 -9 0 12 #fcfcfc #000000 #000000 10600 1;
#X obj 277 336 else/rescale~ 100 800;
#X obj 132 205 else/sfont~ ../sounds/FluidR3_GM.sf2;
#X obj 171 135 print jeanne;
#X obj 330 247 print pgm;
#X obj 220 425 else/phaser~ 8 0.1 0.25;
#X obj 401 288 osc~ 0.1;
#X msg 151 70 note \$1 \$2 1;
#X obj 265 657 plate-rev 0.268908 52.1008 0.226891 0.176471 0.521008;
#X obj 257 902 notch 1000 1;
#X obj 21 19 pgm 0 89;
#X obj 337 68 cap-intensity 0.5 0.05;
#X obj 170 296 +~;
#X connect 0 0 16 0;
#X connect 1 0 3 1;
#X connect 1 0 15 0;
#X connect 3 0 17 0;
#X connect 7 0 20 0;
#X connect 8 0 3 2;
#X connect 9 0 3 3;
#X connect 10 0 14 1;
#X connect 11 0 21 0;
#X connect 11 1 21 1;
#X connect 11 2 13 0;
#X connect 14 0 3 0;
#X connect 15 0 10 0;
#X connect 16 0 11 0;
#X connect 16 0 12 0;
#X connect 17 0 18 0;
#X connect 18 0 2 0;
#X connect 19 0 11 0;
#X connect 20 0 11 0;
#X connect 21 0 14 0;
#X restore 388 450 pd jeanne;
#X obj 306 937 osc-receive;
#X obj 88 127 r cap-0;
#X obj 235 145 loadbang;
#X obj 288 255 r cap-0;
#X obj 288 305 heartbeat;
#X obj 330 110 r cap-1;
#X obj 542 402 r cap-1;
#X obj 542 452 heartbeat;
#X obj 831 475 heartbeat;
#X obj 700 116 r cap-2;
#X obj 831 425 r cap-2;
#N canvas 94 39 1315 1040 schuyler 0;
#X obj 205 25 inlet;
#X obj 753 28 inlet;
#X obj 265 943 outlet~;
#X obj 267 553 else/chorus~;
#X text 714 28 Rate;
#X text 167 25 Note;
#X text 259 25 Intensity;
#X obj 337 25 inlet;
#X obj 610 293 vsl 20 170 0 5 0 1 empty empty Depth 0 -9 0 12 #fcfcfc #000000 #000000 11800 1;
#X obj 677 330 vsl 20 170 0 1 0 1 empty empty Wet 0 -9 0 12 #fcfcfc #000000 #000000 8300 0;
#X obj 135 310 else/sfont~ ../sounds/FluidR3_GM.sf2;
#X obj 386 264 print pgm;
#X obj 338 149 cap-intensity 0.5 0.05;
#X obj 58 227 vsl 20 170 0 100 0 1 empty empty Depth 0 -9 0 12 #fcfcfc #000000 #000000 15100 0;
#X obj 173 443 else/flanger~ 1 10 0.1;
#X obj 264 876 else/plate.rev~;
#X obj 166 560 vsl 20 170 0 1 0 1 empty empty Size 0 -9 0 12 #fcfcfc #000000 #000000 9400 1;
#X msg 166 765 size \$1;
#X obj 90 558 vsl 20 170 10 1000 1 1 empty empty Delay 0 -9 0 12 #fcfcfc #000000 #000000 15100 0;
#X msg 90 763 pre \$1;
#X obj 445 314 * 0.25;
#X obj 47 33 pgm 0 89;
#X obj 181 210 print schuyler;
#X msg 144 152 note \$1 \$2 1;
#X obj 154 356 +~;
#X connect 0 0 23 0;
#X connect 1 0 20 0;
#X connect 3 0 15 0;
#X connect 7 0 12 0;
#X connect 8 0 3 2;
#X connect 9 0 3 3;
#X connect 10 0 24 0;
#X connect 10 1 24 1;
#X connect 10 2 11 0;
#X connect 12 0 10 0;
#X connect 13 0 14 2;
#X connect 14 0 3 0;
#X connect 15 0 2 0;
#X connect 16 0 17 0;
#X connect 17 0 15 0;
#X connect 18 0 19 0;
#X connect 19 0 15 0;
#X connect 20 0 14 1;
#X connect 20 0 3 1;
#X connect 21 0 10 0;
#X connect 23 0 10 0;
#X connect 23 0 22 0;
#X connect 24 0 14 0;
#X restore 746 528 pd schuyler;
#X obj 516 151 loadbang;
#X obj 887 958 loadbang;
#X msg 887 998 \; pd dsp 1;
#X obj 119 553 channel-send 0.841727 0 0 0;
#X obj 451 603 channel-send 0 0.805755 0 0;
#X obj 780 625 channel-send 0.057554 0 0.978417 0;
#X obj 126 392 note-send;
#X obj 252 392 melodic-voice 0;
#X obj 373 360 note-send;
#X obj 508 360 melodic-voice 1;
#X obj 705 382 note-send;
#X obj 841 379 melodic-voice 2;
#X obj 623 934 state-table;
#X obj 623 974 mode-table;
#X obj 803 934 r bpm;
#X obj 803 974 clock;
#X obj 93 214 nbx 5 17 -1e+37 1e+37 0 0 empty empty empty 0 -10 0 12 #fcfcfc #000000 #000000 0 256;
#X obj 133 308 nbx 5 17 -1e+37 1e+37 0 1 empty empty empty 0 -10 0 12 #fcfcfc #000000 #000000 127 256;
#X obj 334 170 nbx 5 17 -1e+37 1e+37 0 0 empty empty empty 0 -10 0 12 #fcfcfc #000000 #000000 0 256;
#X obj 413 313 nbx 5 17 -1e+37 1e+37 0 1 empty empty empty 0 -10 0 12 #fcfcfc #000000 #000000 127 256;
#X obj 700 189 nbx 5 17 -1e+37 1e+37 0 0 empty empty empty 0 -10 0 12 #fcfcfc #000000 #000000 0 256;
#X obj 713 318 nbx 5 17 -1e+37 1e+37 0 1 empty empty empty 0 -10 0 12 #fcfcfc #000000 #000000 127 256;
#X obj 237 183 nbx 5 17 -1e+37 1e+37 0 1 empty empty empty 0 -10 0 12 #fcfcfc #000000 #000000 0 256;
#X msg 237 220 octave \$1;
#X obj 516 200 nbx 5 17 -1e+37 1e+37 0 0 empty empty empty 0 -10 0 12 #fcfcfc #000000 #000000 0 256;
#X msg 527 241 octave \$1;
#X obj 915 155 loadbang;
#X obj 917 193 nbx 5 17 -1e+37 1e+37 0 1 empty empty empty 0 -10 0 12 #fcfcfc #000000 #000000 2 256;
#X msg 917 230 octave \$1;
#X obj 1194 470 heartbeat;
#X obj 1059 263 cap-trigger 0.1;
#X obj 1120 593 channel-send 0 0 0 1;
#X obj 1068 377 note-send;
#X obj 1063 184 nbx 5 17 -1e+37 1e+37 0 0 empty empty empty 0 -10 0 12 #fcfcfc #000000 #000000 0 256;
#X obj 1076 313 nbx 5 17 -1e+37 1e+37 0 1 empty empty empty 0 -10 0 12 #fcfcfc #000000 #000000 127 256;
#X obj 1278 150 loadbang;
#X obj 1280 188 nbx 5 17 -1e+37 1e+37 0 1 empty empty empty 0 -10 0 12 #fcfcfc #000000 #000000 -1 256;
#X msg 1280 225 octave \$1;
#N canvas 140 43 1315 1040 besha 0;
#X obj 205 25 inlet;
#X obj 753 28 inlet;
#X obj 265 943 outlet~;
#X obj 267 553 else/chorus~;
#X text 714 28 Rate;
#X text 167 25 Note;
#X text 259 25 Intensity;
#X obj 337 25 inlet;
#X obj 610 293 vsl 20 170 0 5 0 1 empty empty Depth 0 -9 0 12 #fcfcfc #000000 #000000 6100 1;
#X obj 677 330 vsl 20 170 0 1 0 1 empty empty Wet 0 -9 0 12 #fcfcfc #000000 #000000 13400 0;
#X obj 135 310 else/sfont~ ../sounds/FluidR3_GM.sf2;
#X obj 386 264 print pgm;
#X obj 338 149 cap-intensity 0.5 0.05;
#X obj 58 227 vsl 20 170 0 100 0 1 empty empty Depth 0 -9 0 12 #fcfcfc #000000 #000000 8300 0;
#X obj 173 443 else/flanger~ 1 10 0.1;
#X obj 264 876 else/plate.rev~;
#X obj 166 560 vsl 20 170 0 1 0 1 empty empty Size 0 -9 0 12 #fcfcfc #000000 #000000 12500 1;
#X msg 166 765 size \$1;
#X obj 90 558 vsl 20 170 10 1000 1 1 empty empty Delay 0 -9 0 12 #fcfcfc #000000 #000000 15100 0;
#X msg 90 763 pre \$1;
#X obj 445 314 * 0.25;
#X obj 47 33 pgm 0 92;
#X msg 144 152 note \$1 \$2 1;
#X obj 154 356 +~;
#X obj 181 210 print besha;
#X connect 0 0 22 0;
#X connect 1 0 20 0;
#X connect 3 0 15 0;
#X connect 7 0 12 0;
#X connect 8 0 3 2;
#X connect 9 0 3 3;
#X connect 10 0 23 0;
#X connect 10 1 23 1;
#X connect 10 2 11 0;
#X connect 12 0 10 0;
#X connect 13 0 14 2;
#X connect 14 0 3 0;
#X connect 15 0 2 0;
#X connect 16 0 17 0;
#X connect 17 0 15 0;
#X connect 18 0 19 0;
#X connect 19 0 15 0;
#X connect 20 0 14 1;
#X connect 20 0 3 1;
#X connect 21 0 10 0;
#X connect 21 0 24 0;
#X connect 22 0 10 0;
#X connect 22 0 24 0;
#X connect 23 0 14 0;
#X restore 1109 523 pd besha;
#X obj 1222 147 bng 19 250 50 0 empty empty empty 0 -10 0 12 #fcfcfc #000000 #000000;
#X obj 528 880 nbx 5 17 -1e+37 1e+37 0 1 empty empty empty 0 -10 0 12 #fcfcfc #000000 #000000 3 256;
#X obj 520 839 bng 19 250 50 0 empty empty empty 0 -10 0 12 #fcfcfc #000000 #000000;
#X obj 417 841 loadbang, f 10;
#X obj 435 918;
#X obj 108 274 cap-trigger 0.5;
#X obj 407 245 cap-trigger 0.5;
#X obj 1059 118 r cap-3;
#X obj 1194 420 r cap-3;
#X obj 1204 374 melodic-voice 3;
#X obj 696 268 cap-trigger 0.2;
#X obj 732 229 * 2;
#X connect 1 0 18 0;
#X connect 2 0 19 0;
#X connect 4 0 31 0;
#X connect 5 0 37 0;
#X connect 6 0 7 0;
#X connect 7 0 1 2;
#X connect 8 0 33 0;
#X connect 9 0 10 0;
#X connect 10 0 2 2;
#X connect 11 0 14 2;
#X connect 12 0 35 0;
#X connect 13 0 11 0;
#X connect 14 0 20 0;
#X connect 15 0 39 0;
#X connect 16 0 17 0;
#X connect 21 0 1 0;
#X connect 21 1 22 0;
#X connect 22 0 21 2;
#X connect 23 0 2 0;
#X connect 23 1 24 0;
#X connect 24 0 23 2;
#X connect 25 0 14 0;
#X connect 25 1 26 0;
#X connect 26 0 25 2;
#X connect 29 0 30 0;
#X connect 31 0 59 0;
#X connect 32 0 21 1;
#X connect 33 0 60 0;
#X connect 34 0 23 1;
#X connect 35 0 65 0;
#X connect 36 0 25 1;
#X connect 37 0 38 0;
#X connect 38 0 22 0;
#X connect 39 0 40 0;
#X connect 40 0 24 0;
#X connect 41 0 42 0;
#X connect 42 0 43 0;
#X connect 43 0 26 0;
#X connect 44 0 53 2;
#X connect 45 0 47 0;
#X connect 47 0 53 0;
#X connect 47 1 63 0;
#X connect 48 0 45 0;
#X connect 49 0 47 1;
#X connect 50 0 51 0;
#X connect 51 0 52 0;
#X connect 52 0 63 0;
#X connect 53 0 46 0;
#X connect 54 0 51 0;
#X connect 55 0 28 0;
#X connect 56 0 55 0;
#X connect 57 0 55 0;
#X connect 59 0 21 0;
#X connect 59 1 1 1;
#X connect 60 0 23 0;
#X connect 60 1 2 1;
#X connect 61 0 48 0;
#X connect 62 0 44 0;
#X connect 63 0 47 2;
#X connect 64 0 25 0;
#X connect 65 0 64 0;
