#N canvas 541 187 1455 1671 12;
#X obj 284 650 master;
#N canvas 374 52 1844 1400 brent 1;
#X obj 205 25 inlet;
#X obj 753 28 inlet;
#X obj 22 8 loadbang;
#X obj 296 652 outlet~;
#X obj 296 546 else/chorus~;
#X text 714 28 Rate;
#X text 167 25 Note;
#X obj 296 584 else/plate.rev~;
#X text 259 25 Intensity;
#X obj 337 25 inlet;
#X obj 213 97 print brent;
#X obj 598 292 vsl 20 170 0 5 0 1 empty empty Depth 0 -9 0 12 #fcfcfc #000000 #000000 13100 1;
#X obj 648 296 vsl 20 170 0 1 0 1 empty empty Wet 0 -9 0 12 #fcfcfc #000000 #000000 11400 1;
#X obj 22 47 t b b;
#X obj 101 8 bng 20 250 50 0 empty empty empty 0 -10 0 12 #fcfcfc #000000 #000000;
#X obj 220 425 else/phaser~ 8 0.5 0.5;
#X obj 277 336 else/rescale~ 100 800;
#X obj 330 247 print pgm;
#X obj 132 205 else/sfont~ /usr/share/sounds/sf2/FluidR3_GM.sf2;
#X obj 36 101 pgm 0 16;
#X obj 278 289 osc~ 0.1;
#X msg 132 155 note \$1 \$2 1;
#X obj 336 93 cap-intensity 0.5 0.05;
#X connect 0 0 10 0;
#X connect 0 0 21 0;
#X connect 1 0 4 1;
#X connect 4 0 7 0;
#X connect 7 0 3 0;
#X connect 9 0 22 0;
#X connect 11 0 4 2;
#X connect 12 0 4 3;
#X connect 15 0 4 0;
#X connect 16 0 15 1;
#X connect 18 0 15 0;
#X connect 18 2 17 0;
#X connect 19 0 18 0;
#X connect 20 0 16 0;
#X connect 21 0 18 0;
#X connect 22 0 18 0;
#X restore 120 370 pd brent;
#N canvas 1512 383 1297 1679 jeanne 1;
#X obj 205 25 inlet;
#X obj 753 28 inlet;
#X obj 283 1148 outlet~;
#X obj 267 553 else/chorus~;
#X text 714 28 Rate;
#X text 167 25 Note;
#X text 259 25 Intensity;
#X obj 337 25 inlet;
#X obj 602 264 vsl 20 170 0 5 0 1 empty empty Depth 0 -9 0 12 #fcfcfc #000000 #000000 4200 1;
#X obj 647 295 vsl 20 170 0 1 0 1 empty empty Wet 0 -9 0 12 #fcfcfc #000000 #000000 10600 1;
#X obj 277 336 else/rescale~ 100 800;
#X obj 132 205 else/sfont~ /usr/share/sounds/sf2/FluidR3_GM.sf2;
#X obj 215 97 print jeanne;
#X obj 330 247 print pgm;
#X obj 220 425 else/phaser~ 8 0.1 0.25;
#X obj 401 288 osc~ 0.1;
#X msg 132 155 note \$1 \$2 1;
#X obj 265 657 plate-rev 0 0 0 0 0;
#X obj 257 902 notch 1000 1;
#X obj 21 19 pgm 0 0;
#X obj 337 68 cap-intensity 1 0.05;
#X connect 0 0 12 0;
#X connect 0 0 16 0;
#X connect 1 0 3 1;
#X connect 1 0 15 0;
#X connect 3 0 17 0;
#X connect 7 0 20 0;
#X connect 8 0 3 2;
#X connect 9 0 3 3;
#X connect 10 0 14 1;
#X connect 11 0 14 0;
#X connect 11 2 13 0;
#X connect 14 0 3 0;
#X connect 15 0 10 0;
#X connect 16 0 11 0;
#X connect 17 0 18 0;
#X connect 18 0 2 0;
#X connect 19 0 16 0;
#X connect 20 0 11 0;
#X restore 400 370 pd jeanne;
#X obj 45 12 osc-receive;
#X obj 50 50 r cap-0;
#X obj 50 110 cap-trigger 0.2;
#X obj 178 45 loadbang;
#X msg 180 85 octave 2;
#X obj 209 178 r cap-0;
#X obj 209 228 heartbeat;
#X obj 304 84 r cap-1;
#X obj 485 267 r cap-1;
#X obj 485 317 heartbeat;
#X obj 727 315 heartbeat;
#X obj 546 82 r cap-2;
#X obj 727 265 r cap-2;
#N canvas 1647 300 1315 1679 schuyler 1;
#X obj 205 25 inlet;
#X obj 753 28 inlet;
#X obj 265 943 outlet~;
#X obj 267 553 else/chorus~;
#X text 714 28 Rate;
#X text 167 25 Note;
#X text 259 25 Intensity;
#X obj 337 25 inlet;
#X obj 610 293 vsl 20 170 0 5 0 1 empty empty Depth 0 -9 0 12 #fcfcfc #000000 #000000 11800 1;
#X obj 677 330 vsl 20 170 0 1 0 1 empty empty Wet 0 -9 0 12 #fcfcfc #000000 #000000 8300 0;
#X obj 132 205 else/sfont~ /usr/share/sounds/sf2/FluidR3_GM.sf2;
#X obj 330 247 print pgm;
#X msg 36 101 bank 0 1 \, pgm \$1 1;
#X obj 37 60 nbx 5 18 0 128 0 1 empty empty Pgm 0 -10 0 12 #fcfcfc #000000 #000000 44 256;
#X msg 132 155 note \$1 \$2 1;
#X obj 35 15 loadbang;
#X obj 215 97 print schuyler;
#X obj 338 149 cap-intensity 0.5 0.05;
#X obj 58 227 vsl 20 170 0 100 0 1 empty empty Depth 0 -9 0 12 #fcfcfc #000000 #000000 15100 0;
#X obj 173 443 else/flanger~ 1 10 0.1;
#X obj 264 876 else/plate.rev~;
#X obj 166 560 vsl 20 170 0 1 0 1 empty empty Size 0 -9 0 12 #fcfcfc #000000 #000000 4100 1;
#X msg 166 765 size \$1;
#X obj 90 558 vsl 20 170 10 1000 1 1 empty empty Delay 0 -9 0 12 #fcfcfc #000000 #000000 15100 0;
#X msg 90 763 pre \$1;
#X obj 445 314 * 0.25;
#X connect 0 0 14 0;
#X connect 0 0 16 0;
#X connect 1 0 25 0;
#X connect 3 0 20 0;
#X connect 7 0 17 0;
#X connect 8 0 3 2;
#X connect 9 0 3 3;
#X connect 10 0 19 0;
#X connect 10 2 11 0;
#X connect 12 0 10 0;
#X connect 13 0 12 0;
#X connect 14 0 10 0;
#X connect 15 0 13 0;
#X connect 17 0 10 0;
#X connect 18 0 19 2;
#X connect 19 0 3 0;
#X connect 20 0 2 0;
#X connect 21 0 22 0;
#X connect 22 0 20 0;
#X connect 23 0 24 0;
#X connect 24 0 20 0;
#X connect 25 0 19 1;
#X connect 25 0 3 1;
#X restore 642 368 pd schuyler;
#X msg 672 83 octave 0;
#X obj 426 43 loadbang;
#X obj 671 46 loadbang;
#X obj 559 28 bng 20 250 50 0 empty empty empty 0 -10 0 12 #fcfcfc #000000 #000000;
#X msg 430 85 octave 1;
#X obj 350 110 cap-trigger 0.1;
#X obj 592 108 cap-trigger 0.1;
#X obj 1200 12 loadbang;
#X msg 1200 52 \; pd dsp 1;
#X obj 120 430 channel-send 0 0 0 0;
#X obj 400 430 channel-send 0 0 0 0;
#X obj 642 430 channel-send 0 0 0 0;
#X obj 60 480 note-send;
#X obj 130 530 melodic-voice 0;
#X obj 340 480 note-send;
#X obj 410 530 melodic-voice 1;
#X obj 580 480 note-send;
#X obj 650 530 melodic-voice 2;
#X obj 1000 430 state-table;
#X obj 1000 470 mode-table;
#X connect 24 0 25 0;
#X connect 1 0 26 0;
#X connect 2 0 27 0;
#X connect 16 0 28 0;
#X connect 4 0 5 0;
#X connect 10 0 22 0;
#X connect 14 0 23 0;
#X connect 8 0 9 0;
#X connect 9 0 1 2;
#X connect 11 0 12 0;
#X connect 12 0 2 2;
#X connect 15 0 13 0;
#X connect 13 0 16 2;
#X connect 6 0 7 0;
#X connect 7 0 30 0;
#X connect 18 0 21 0;
#X connect 21 0 32 0;
#X connect 19 0 17 0;
#X connect 17 0 34 0;
#X connect 20 0 17 0;
#X connect 20 0 21 0;
#X connect 5 0 29 0;
#X connect 5 1 29 1;
#X connect 30 0 29 2;
#X connect 29 0 1 0;
#X connect 29 1 30 0;
#X connect 5 1 1 1;
#X connect 22 0 31 0;
#X connect 22 1 31 1;
#X connect 32 0 31 2;
#X connect 31 0 2 0;
#X connect 31 1 32 0;
#X connect 22 1 2 1;
#X connect 23 0 33 0;
#X connect 23 1 33 1;
#X connect 34 0 33 2;
#X connect 33 0 16 0;
#X connect 33 1 34 0;
#X connect 23 1 16 1;
