#N canvas 0 0 900 600 12;
#X text 20 16 main.pd -- top-level Shrine sound engine. Loads OSC input + drones + master.;
#X text 20 34 Melodic layer (melodic-voice note generators -> texture renderers) is added once ELSE/Pd 0.56 is available.;
#X obj 40 90 osc-receive;
#X obj 40 470 master;
#X obj 600 90 loadbang;
#X obj 40 170 r cap-0;
#X msg 40 200 110.0;
#X obj 40 260 drone;
#X connect 5 0 7 0;
#X connect 6 0 7 1;
#X connect 4 0 6 0;
#X connect 7 0 3 0;
#X obj 240 170 r cap-1;
#X msg 240 200 196.0;
#X obj 240 260 drone;
#X connect 8 0 10 0;
#X connect 9 0 10 1;
#X connect 4 0 9 0;
#X connect 10 0 3 1;
#X obj 440 170 r cap-2;
#X msg 440 200 329.628;
#X obj 440 260 drone;
#X connect 11 0 13 0;
#X connect 12 0 13 1;
#X connect 4 0 12 0;
#X connect 13 0 3 2;
#X obj 640 170 r cap-3;
#X msg 640 200 587.33;
#X obj 640 260 drone;
#X connect 14 0 16 0;
#X connect 15 0 16 1;
#X connect 4 0 15 0;
#X connect 16 0 3 3;
#X obj 600 130 loadbang;
#X msg 600 160 \; pd dsp 1;
#X connect 17 0 18 0;
