#N canvas 0 0 820 480 12;
#X text 20 16 master.pd -- per-channel sum + soft limiter -> dac~ 1-4 (panel exciters).;
#X text 20 34 inlets 0-3: channel signals. TODO: tactile sends dac~ 5-8 (LPF) per Sound_Architecture.;
#X obj 30 90 inlet~;
#X obj 30 140 clip~ -1 1;
#X obj 30 190 dac~ 1;
#X connect 2 0 3 0;
#X connect 3 0 4 0;
#X obj 220 90 inlet~;
#X obj 220 140 clip~ -1 1;
#X obj 220 190 dac~ 2;
#X connect 5 0 6 0;
#X connect 6 0 7 0;
#X obj 410 90 inlet~;
#X obj 410 140 clip~ -1 1;
#X obj 410 190 dac~ 3;
#X connect 8 0 9 0;
#X connect 9 0 10 0;
#X obj 600 90 inlet~;
#X obj 600 140 clip~ -1 1;
#X obj 600 190 dac~ 4;
#X connect 11 0 12 0;
#X connect 12 0 13 0;
