#N canvas 0 0 1180 450 12;
#X text 20 16 master.pd -- per-channel catch~ bus sum + per-channel EQ (param-eq) + soft limiter -> dac~ 1-4 (panel exciters).;
#X text 20 34 No inlets. Reads from throw~ buses ch-1~ through ch-4~.;
#X obj 30 90 catch~ ch-1~;
#X obj 30 320 clip~ -1 1;
#X obj 30 370 dac~ 1;
#X obj 310 90 catch~ ch-2~;
#X obj 310 320 clip~ -1 1;
#X obj 310 370 dac~ 2;
#X obj 590 90 catch~ ch-3~;
#X obj 590 320 clip~ -1 1;
#X obj 870 90 catch~ ch-4~;
#X obj 870 320 clip~ -1 1;
#X obj 30 130 param-eq 0 0 0 0 0 0;
#X obj 310 130 param-eq 0 0 0 0 0 0;
#X obj 590 130 param-eq 0 0 0 0 0 0;
#X obj 870 130 param-eq 0 0 0 0 0 0;
#X obj 590 370 dac~ 5;
#X obj 870 370 dac~ 6;
#X connect 2 0 12 0;
#X connect 3 0 4 0;
#X connect 5 0 13 0;
#X connect 6 0 7 0;
#X connect 8 0 14 0;
#X connect 9 0 16 0;
#X connect 10 0 15 0;
#X connect 11 0 17 0;
#X connect 12 0 3 0;
#X connect 13 0 6 0;
#X connect 14 0 9 0;
#X connect 15 0 11 0;
