#N canvas 0 0 860 620 12;
#X text 20 16 melodic-voice.pd -- one connection voice. arg1 = pair index (0-5).;
#X text 20 34 Reads gsr-mag-(pair) [volume] and restless-(pair) [TODO: subdivision]. Emits MIDI to [s voice-midi].;
#X text 20 52 inlet0: register index into mode-notes. inlet1: MIDI channel. Walk = biased +-1 over the mode.;
#X text 20 70 DRAFT: subdivision (restless ladder) + reflect-bounding + note-off discipline still TODO.;
#X obj 30 110 inlet;
#X obj 170 110 inlet;
#X obj 30 145 f;
#X connect 4 0 6 0;
#X obj 170 145 f;
#X connect 5 0 7 0;
#X obj 330 110 r gsr-mag-$1;
#X obj 330 145 * 127;
#X connect 8 0 9 0;
#X obj 330 180 clip 0 127;
#X connect 9 0 10 0;
#X obj 330 215 f;
#X connect 10 0 11 0;
#X obj 30 230 r beat;
#X obj 30 265 random 3;
#X connect 12 0 13 0;
#X obj 30 300 - 1;
#X connect 13 0 14 0;
#X obj 30 335 +;
#X connect 14 0 15 0;
#X obj 30 370 clip 0 12;
#X connect 15 0 16 0;
#X obj 30 405 f;
#X connect 16 0 17 0;
#X connect 17 0 15 1;
#X obj 30 445 +;
#X connect 17 0 18 0;
#X connect 6 0 18 1;
#X obj 30 480 tabread mode-notes;
#X connect 18 0 19 0;
#X obj 30 515 pack f f f;
#X connect 19 0 20 0;
#X connect 11 0 20 1;
#X connect 7 0 20 2;
#X obj 30 550 list prepend note;
#X connect 20 0 21 0;
#X obj 30 580 list trim;
#X connect 21 0 22 0;
#X obj 220 580 s voice-midi;
#X connect 22 0 23 0;
