#N canvas 40 40 820 600 12;
#X text 20 16 melodic-voice.pd -- one melody-line generator per voice. Inlet 0: bang to advance a note (also accepts an "octave N" message). Inlet 1: velocity/intensity 0-1 (from cap-trigger). Emits pitch+velocity pairs to a texture Note inlet.;
#X text 20 58 Common tonic comes from [r shrine-root] (one root for the whole piece)\, transposed per voice: effective root = shrine-root + 12*octave. Scale from mode-intervals / mode-size.;
#X obj 40 110 inlet;
#X obj 220 110 inlet;
#X obj 40 150 route octave;
#X obj 40 200 t b;
#X obj 40 240 s \$0-step;
#X obj 220 150 * 127;
#X obj 220 190 clip 0 127;
#X obj 220 230 int;
#X obj 220 270 v \$0-velocity;
#X obj 470 110 r shrine-root;
#X obj 470 150 t b f;
#X obj 470 200 v \$0-base;
#X obj 150 200 t b f;
#X obj 150 250 v \$0-octave;
#X obj 360 200 s \$0-recompute;
#X obj 470 280 r \$0-recompute;
#X obj 470 320 t b b;
#X obj 590 360 * 12;
#X obj 470 400 +;
#X obj 470 440 v \$0-root;
#N canvas 60 60 540 380 init 0;
#X obj 30 30 loadbang;
#X obj 30 70 t b b b b b b b b;
#X msg 30 120 1;
#X obj 30 160 v \$0-direction;
#X msg 90 120 0;
#X obj 90 160 v \$0-degree;
#X msg 150 120 0;
#X obj 150 160 v \$0-playing;
#X msg 210 120 0;
#X obj 210 160 v \$0-lastpitch;
#X msg 270 120 0;
#X obj 270 160 v \$0-octave;
#X msg 330 120 60;
#X obj 330 160 v \$0-base;
#X msg 390 120 7;
#X obj 390 160 v \$0-range;
#X obj 450 160 s \$0-recompute;
#X connect 0 0 1 0;
#X connect 1 1 2 0;
#X connect 2 0 3 0;
#X connect 1 2 4 0;
#X connect 4 0 5 0;
#X connect 1 3 6 0;
#X connect 6 0 7 0;
#X connect 1 4 8 0;
#X connect 8 0 9 0;
#X connect 1 5 10 0;
#X connect 10 0 11 0;
#X connect 1 6 12 0;
#X connect 12 0 13 0;
#X connect 1 7 14 0;
#X connect 14 0 15 0;
#X connect 1 0 16 0;
#X restore 560 110 pd init;
#N canvas 60 60 440 260 range 0;
#X text 20 16 range = floor(1.5 * mode-size) degrees (~1.5 octaves).;
#X obj 30 50 r mode-size;
#X obj 30 90 * 1.5;
#X obj 30 130 int;
#X obj 30 170 v \$0-range;
#X connect 1 0 2 0;
#X connect 2 0 3 0;
#X connect 3 0 4 0;
#X restore 560 150 pd range;
#N canvas 60 60 960 660 walk 0;
#X text 20 16 Weighted walk on the scale degree: 70%% step \, 20%% reverse \, 10%% leap of 2. Reflects at [0 \, range) and flips direction.;
#X obj 30 60 r \$0-step;
#X obj 30 100 t b b;
#X obj 220 140 v \$0-degree;
#X obj 30 230 +;
#X obj 30 140 random 100;
#X obj 30 180 moses 70;
#X obj 160 180 moses 90;
#X obj 30 290 t b;
#X obj 30 330 v \$0-direction;
#X obj 30 370 * 1;
#X obj 160 290 t b;
#X obj 160 330 v \$0-direction;
#X obj 160 370 * -1;
#X obj 160 410 t f f;
#X obj 270 450 v \$0-direction;
#X obj 320 290 t b;
#X obj 320 330 v \$0-direction;
#X obj 320 370 * 2;
#N canvas 60 60 780 440 boundary 0;
#X text 20 16 Reflect raw degree into [0 \, range). Flip \$0-direction on a bounce.;
#X obj 30 60 inlet;
#X obj 30 100 t f b;
#X obj 220 140 v \$0-range;
#X obj 220 180 t f f;
#X obj 320 220 - 1;
#X obj 320 260 * 2;
#X obj 30 240 moses 0;
#X obj 30 290 t b f;
#X obj 30 360 * -1;
#X obj 160 290 moses;
#X obj 230 340 t b f;
#X obj 230 400 * -1;
#X obj 160 440 +;
#X obj 30 500 outlet;
#X obj 430 300 v \$0-direction;
#X obj 430 340 * -1;
#X obj 430 380 v \$0-direction;
#X connect 1 0 2 0;
#X connect 2 1 3 0;
#X connect 3 0 4 0;
#X connect 4 0 10 1;
#X connect 4 1 5 0;
#X connect 5 0 6 0;
#X connect 6 0 13 1;
#X connect 2 0 7 0;
#X connect 7 0 8 0;
#X connect 7 1 10 0;
#X connect 8 1 9 0;
#X connect 9 0 14 0;
#X connect 8 0 15 0;
#X connect 10 0 14 0;
#X connect 10 1 11 0;
#X connect 11 1 12 0;
#X connect 12 0 13 0;
#X connect 13 0 14 0;
#X connect 11 0 15 0;
#X connect 15 0 16 0;
#X connect 16 0 17 0;
#X restore 30 470 pd boundary;
#X obj 30 520 t b f;
#X obj 30 560 v \$0-degree;
#X obj 150 560 s \$0-emit;
#X connect 1 0 2 0;
#X connect 2 1 3 0;
#X connect 3 0 4 1;
#X connect 2 0 5 0;
#X connect 5 0 6 0;
#X connect 6 0 8 0;
#X connect 6 1 7 0;
#X connect 7 0 11 0;
#X connect 7 1 16 0;
#X connect 8 0 9 0;
#X connect 9 0 10 0;
#X connect 10 0 4 0;
#X connect 11 0 12 0;
#X connect 12 0 13 0;
#X connect 13 0 14 0;
#X connect 14 0 4 0;
#X connect 14 1 15 0;
#X connect 16 0 17 0;
#X connect 17 0 18 0;
#X connect 18 0 4 0;
#X connect 4 0 19 0;
#X connect 19 0 20 0;
#X connect 20 1 21 0;
#X connect 20 0 22 0;
#X restore 40 320 pd walk;
#N canvas 60 60 940 660 voice 0;
#X text 20 16 On emit: degree -> MIDI pitch via mode-intervals \, then note-off the last pitch and note-on the new one as pitch+velocity pairs.;
#X obj 30 60 r \$0-emit;
#X obj 30 100 t b b;
#X obj 30 140 v \$0-root;
#X obj 150 140 v \$0-degree;
#X obj 150 180 t f f;
#X obj 150 230 mod 5;
#X obj 150 270 tabread mode-intervals;
#X obj 280 230 div 5;
#X obj 280 270 * 12;
#X obj 150 320 +;
#X obj 150 370 +;
#X obj 150 410 t b f;
#X obj 320 410 v \$0-newpitch;
#X obj 540 140 r mode-size;
#X obj 540 180 t f f;
#X obj 150 460 v \$0-velocity;
#X obj 150 500 moses 5;
#X obj 150 550 t b;
#X obj 280 550 t b b;
#N canvas 60 60 540 400 do-note-off 0;
#X text 20 16 If playing \, emit "lastpitch 0" (note-off) and clear playing.;
#X obj 30 60 inlet;
#X obj 30 100 v \$0-playing;
#X obj 30 140 sel 1;
#X obj 30 180 t b b;
#X obj 30 220 v \$0-lastpitch;
#X obj 30 260 pack f 0;
#X obj 30 300 outlet;
#X msg 150 220 0;
#X obj 150 260 v \$0-playing;
#X connect 1 0 2 0;
#X connect 2 0 3 0;
#X connect 3 1 4 0;
#X connect 4 0 5 0;
#X connect 5 0 6 0;
#X connect 3 0 7 0;
#X connect 7 0 8 0;
#X restore 150 600 pd do-note-off;
#N canvas 60 60 580 420 do-note-on 0;
#X text 20 16 Emit "newpitch velocity" (note-on) \, store last-pitch \, set playing.;
#X obj 30 60 inlet;
#X obj 30 100 t b b b;
#X obj 30 140 v \$0-velocity;
#X obj 150 140 v \$0-newpitch;
#X obj 30 180 pack f f;
#X obj 30 220 outlet;
#X obj 280 140 v \$0-newpitch;
#X obj 280 180 v \$0-lastpitch;
#X msg 400 140 1;
#X obj 400 180 v \$0-playing;
#X connect 1 2 2 0;
#X connect 2 0 4 1;
#X connect 1 1 3 0;
#X connect 3 0 4 0;
#X connect 4 0 5 0;
#X connect 1 0 6 0;
#X connect 6 0 7 0;
#X connect 1 0 8 0;
#X connect 8 0 9 0;
#X connect 0 0 1 0;
#X restore 280 600 pd do-note-on;
#X obj 30 640 outlet;
#X connect 1 0 2 0;
#X connect 2 1 3 0;
#X connect 3 0 11 1;
#X connect 2 0 4 0;
#X connect 4 0 5 0;
#X connect 5 1 8 0;
#X connect 5 0 6 0;
#X connect 6 0 7 0;
#X connect 7 0 10 0;
#X connect 8 0 9 0;
#X connect 9 0 10 1;
#X connect 10 0 11 0;
#X connect 11 0 12 0;
#X connect 12 1 13 0;
#X connect 12 0 16 0;
#X connect 14 0 15 0;
#X connect 15 0 6 1;
#X connect 15 1 8 1;
#X connect 16 0 17 0;
#X connect 17 0 18 0;
#X connect 17 1 19 0;
#X connect 18 0 20 0;
#X connect 19 1 20 0;
#X connect 19 0 21 0;
#X connect 20 0 22 0;
#X connect 21 0 22 0;
#X restore 40 400 pd voice;
#X obj 40 500 outlet;
#X text 140 498 pitch velocity pairs -> texture Note inlet;
#X connect 2 0 4 0;
#X connect 4 0 14 0;
#X connect 4 1 5 0;
#X connect 5 0 6 0;
#X connect 3 0 7 0;
#X connect 7 0 8 0;
#X connect 8 0 9 0;
#X connect 9 0 10 0;
#X connect 11 0 12 0;
#X connect 12 1 13 0;
#X connect 12 0 16 0;
#X connect 14 1 15 0;
#X connect 14 0 16 0;
#X connect 17 0 18 0;
#X connect 18 1 13 0;
#X connect 13 0 20 1;
#X connect 18 0 15 0;
#X connect 15 0 19 0;
#X connect 19 0 20 0;
#X connect 20 0 21 0;
#X connect 25 0 26 0;
