#N canvas 0 0 1000 900 12;
#X text 20 16 melodic-voice.pd -- one contrapuntal melody voice per GSR pair.;
#X text 20 34 Args: \$1=pair index (0-5) \, \$2=MIDI root \, \$3=MIDI channel.;
#X text 20 52 Messages: duration N (beats between notes \, default 1) \, root N (MIDI root).;
#X text 20 70 Output: note <pitch> <velocity> <channel> on [s voice-midi].;
#X obj 30 120 inlet;
#X obj 30 155 route duration root;
#X connect 4 0 5 0;
#X obj 30 190 f \$0-duration;
#X connect 5 0 6 0;
#X obj 200 190 f \$0-root;
#X connect 5 1 7 0;
#N canvas 0 0 650 400 init 0;
#X obj 30 30 loadbang;
#X obj 30 60 t b b b b b b;
#X connect 0 0 1 0;
#X msg 30 100 1;
#X connect 1 0 2 0;
#X obj 30 130 s \$0-duration;
#X connect 2 0 3 0;
#X msg 120 100 \$2;
#X connect 1 1 4 0;
#X obj 120 130 s \$0-root;
#X connect 4 0 5 0;
#X msg 210 100 \$3;
#X connect 1 2 6 0;
#X obj 210 130 s \$0-channel;
#X connect 6 0 7 0;
#X msg 300 100 1;
#X connect 1 3 8 0;
#X obj 300 130 s \$0-direction;
#X connect 8 0 9 0;
#X msg 390 100 0;
#X connect 1 4 10 0;
#X obj 390 130 s \$0-playing;
#X connect 10 0 11 0;
#X msg 480 100 0;
#X connect 1 5 12 0;
#X obj 480 130 s \$0-degree;
#X connect 12 0 13 0;
#X restore 600 120 pd init;
#N canvas 0 0 600 300 range-update 0;
#X obj 30 30 r mode-size;
#X obj 30 60 f;
#X connect 0 0 1 0;
#X obj 200 30 r mode-changed;
#X obj 200 60 t b;
#X connect 2 0 3 0;
#X connect 3 0 1 0;
#X obj 30 100 * 1.5;
#X connect 1 0 4 0;
#X obj 30 130 int;
#X connect 4 0 5 0;
#X obj 30 160 s \$0-range;
#X connect 5 0 6 0;
#X restore 600 155 pd range-update;
#N canvas 0 0 750 350 beat-gate 0;
#X obj 30 30 r beat;
#X obj 30 60 f \$0-counter;
#X connect 0 0 1 0;
#X obj 30 90 + 1;
#X connect 1 0 2 0;
#X obj 30 120 mod 1;
#X connect 2 0 3 0;
#X obj 150 120 r \$0-duration;
#X connect 4 0 3 1;
#X obj 30 150 sel 0;
#X connect 3 0 5 0;
#X obj 30 180 s \$0-note-trigger;
#X connect 5 0 6 0;
#X obj 30 220 s \$0-counter;
#X connect 3 0 7 0;
#X restore 600 190 pd beat-gate;
#N canvas 0 0 400 250 velocity 0;
#X obj 30 30 r gsr-mag-\$1;
#X obj 30 60 * 127;
#X connect 0 0 1 0;
#X obj 30 90 clip 0 127;
#X connect 1 0 2 0;
#X obj 30 120 int;
#X connect 2 0 3 0;
#X obj 30 150 s \$0-velocity;
#X connect 3 0 4 0;
#X restore 600 225 pd velocity;
#N canvas 0 0 750 700 walk 0;
#X text 20 16 Weighted random walk. 70%% step \, 20%% reverse \, 10%% leap.;
#X obj 30 50 r \$0-note-trigger;
#X obj 30 80 t b b;
#X connect 1 0 2 0;
#X obj 30 120 random 100;
#X connect 2 1 3 0;
#X obj 30 150 moses 70;
#X connect 3 0 4 0;
#X obj 150 150 moses 90;
#X connect 4 1 5 0;
#X text 30 190 -- step --;
#X obj 30 210 t b;
#X connect 4 0 7 0;
#X msg 30 240 1;
#X connect 7 0 8 0;
#X obj 30 270 *;
#X connect 8 0 9 0;
#X obj 130 270 r \$0-direction;
#X connect 10 0 9 1;
#X text 200 190 -- reverse --;
#X obj 200 210 t b;
#X connect 5 0 12 0;
#X obj 200 240 r \$0-direction;
#X obj 200 270 * -1;
#X connect 13 0 14 0;
#X obj 200 300 t f f;
#X connect 14 0 15 0;
#X obj 200 330 s \$0-direction;
#X connect 15 0 16 0;
#X msg 330 330 1;
#X connect 12 0 17 0;
#X obj 330 360 *;
#X connect 17 0 18 0;
#X connect 15 1 18 1;
#X text 400 190 -- leap --;
#X obj 400 210 t b;
#X connect 5 1 20 0;
#X msg 400 240 2;
#X connect 20 0 21 0;
#X obj 400 270 *;
#X connect 21 0 22 0;
#X obj 500 270 r \$0-direction;
#X connect 23 0 22 1;
#X text 30 400 -- add delta to degree --;
#X obj 30 430 f \$0-degree;
#X connect 2 0 25 0;
#X obj 30 460 +;
#X connect 25 0 26 0;
#X connect 9 0 26 1;
#X connect 18 0 26 1;
#X connect 22 0 26 1;
#N canvas 0 0 650 400 boundary 0;
#X text 20 16 Reflect degree into [0 \, range). Flip direction on reflection.;
#X obj 30 50 inlet;
#X obj 30 80 moses 0;
#X connect 1 0 2 0;
#X obj 30 120 * -1;
#X connect 2 0 3 0;
#X obj 30 150 t f b;
#X connect 3 0 4 0;
#X msg 150 150 1;
#X connect 4 1 5 0;
#X obj 150 180 s \$0-direction;
#X connect 5 0 6 0;
#X obj 30 220 outlet;
#X connect 4 0 7 0;
#X obj 350 50 r \$0-range;
#X obj 350 80 f;
#X connect 8 0 9 0;
#X obj 500 80 f;
#X connect 8 0 10 1;
#X obj 200 80 moses;
#X connect 2 1 11 0;
#X connect 9 0 11 1;
#X connect 11 0 7 0;
#X obj 200 120 t b f;
#X connect 11 1 12 0;
#X obj 350 160 -;
#X connect 12 1 13 1;
#X connect 12 0 10 0;
#X obj 500 120 - 1;
#X connect 10 0 14 0;
#X obj 500 150 * 2;
#X connect 14 0 15 0;
#X connect 15 0 13 0;
#X obj 350 200 t f b;
#X connect 13 0 16 0;
#X msg 500 200 -1;
#X connect 16 1 17 0;
#X obj 500 230 s \$0-direction;
#X connect 17 0 18 0;
#X connect 16 0 7 0;
#X restore 30 500 pd boundary;
#X connect 26 0 27 0;
#X obj 30 540 t f f;
#X connect 27 0 28 0;
#X obj 30 570 s \$0-degree;
#X connect 28 0 29 0;
#X obj 200 570 s \$0-pitch-trigger;
#X connect 28 1 30 0;
#X restore 600 260 pd walk;
#N canvas 0 0 800 500 pitch 0;
#X text 20 16 degree -> MIDI pitch via mode-intervals table.;
#X obj 30 50 r \$0-pitch-trigger;
#X obj 30 80 t f f;
#X connect 1 0 2 0;
#X obj 30 120 r mode-size;
#X obj 30 150 mod 7;
#X connect 2 0 4 0;
#X connect 3 0 4 1;
#X obj 30 180 tabread mode-intervals;
#X connect 4 0 5 0;
#X obj 300 120 r mode-size;
#X obj 300 150 div 7;
#X connect 2 1 7 0;
#X connect 6 0 7 1;
#X obj 300 180 * 12;
#X connect 7 0 8 0;
#X obj 30 240 +;
#X connect 5 0 9 0;
#X connect 8 0 9 1;
#X obj 30 280 r \$0-root;
#X obj 30 310 +;
#X connect 9 0 11 0;
#X connect 10 0 11 1;
#X obj 30 350 s \$0-pitch;
#X connect 11 0 12 0;
#X restore 600 295 pd pitch;
#N canvas 0 0 800 500 output 0;
#X text 20 16 Pitch arrival triggers dispatch. Note-off before note-on.;
#X obj 30 50 r \$0-pitch;
#X obj 30 80 t b f;
#X connect 1 0 2 0;
#X obj 250 80 f \$0-new-pitch;
#X connect 2 1 3 1;
#X obj 30 120 f \$0-velocity;
#X connect 2 0 4 0;
#X obj 30 150 moses 5;
#X connect 4 0 5 0;
#X obj 30 190 t b;
#X connect 5 0 6 0;
#X obj 250 190 t b b;
#X connect 5 1 7 0;
#N canvas 0 0 500 400 do-note-off 0;
#X text 20 16 If playing \, send note-off for last pitch and set playing=0.;
#X obj 30 50 inlet;
#X obj 30 80 f \$0-playing;
#X connect 1 0 2 0;
#X obj 30 110 sel 1;
#X connect 2 0 3 0;
#X obj 30 140 t b b;
#X connect 3 0 4 0;
#X obj 30 180 f \$0-last-pitch;
#X connect 4 1 5 0;
#X obj 200 180 r \$0-channel;
#X obj 30 210 pack f 0 f;
#X connect 5 0 7 0;
#X connect 6 0 7 2;
#X obj 30 240 list prepend note;
#X connect 7 0 8 0;
#X obj 30 270 list trim;
#X connect 8 0 9 0;
#X obj 30 300 s voice-midi;
#X connect 9 0 10 0;
#X msg 250 180 0;
#X connect 4 0 11 0;
#X obj 250 210 s \$0-playing;
#X connect 11 0 12 0;
#X restore 30 230 pd do-note-off;
#X connect 6 0 8 0;
#X connect 7 1 8 0;
#N canvas 0 0 550 450 do-note-on 0;
#X text 20 16 Send note-on for new pitch. Update last-pitch \, set playing=1.;
#X obj 30 50 inlet;
#X obj 30 80 t b b b b;
#X connect 1 0 2 0;
#X obj 400 120 f \$0-channel;
#X connect 2 3 3 0;
#X obj 280 120 f \$0-velocity;
#X connect 2 2 4 0;
#X obj 160 120 f \$0-new-pitch;
#X connect 2 1 5 0;
#X obj 30 160 pack f f f;
#X connect 5 0 6 0;
#X connect 4 0 6 1;
#X connect 3 0 6 2;
#X obj 30 190 list prepend note;
#X connect 6 0 7 0;
#X obj 30 220 list trim;
#X connect 7 0 8 0;
#X obj 30 250 s voice-midi;
#X connect 8 0 9 0;
#X obj 30 300 f \$0-new-pitch;
#X connect 2 0 10 0;
#X obj 30 330 s \$0-last-pitch;
#X connect 10 0 11 0;
#X msg 200 300 1;
#X connect 2 0 12 0;
#X obj 200 330 s \$0-playing;
#X connect 12 0 13 0;
#X restore 250 230 pd do-note-on;
#X connect 7 0 9 0;
#X restore 600 330 pd output;
