#N canvas 703 644 999 937 12;
#X obj 129 52 inlet~;
#X obj 121 317 outlet~;
#X obj 68 167 else/hip.bw~ 150;
#X obj 213 126 else/lop.bw~ 80;
#X obj 92 215 *~ 0.5;
#X obj 214 214 *~ 0.5;
#X obj 121 280 +~;
#X obj 212 167 else/hip.bw~ 30;
#X obj 67 127 else/lop.bw~ 14000;
#X connect 0 0 3 0;
#X connect 0 0 8 0;
#X connect 2 0 4 0;
#X connect 3 0 7 0;
#X connect 4 0 6 0;
#X connect 5 0 6 1;
#X connect 6 0 1 0;
#X connect 7 0 5 0;
#X connect 8 0 2 0;
