#N canvas 0 0 700 460 12;
#X text 20 16 monitor.pd -- DEV ONLY bus printer. Do not load in -nogui production.;
#X obj 30 70 r cap-1;
#X obj 30 100 print cap-1;
#X connect 1 0 2 0;
#X obj 200 70 r cap-2;
#X obj 200 100 print cap-2;
#X connect 3 0 4 0;
#X obj 370 70 r cap-3;
#X obj 370 100 print cap-3;
#X connect 5 0 6 0;
#X obj 540 70 r cap-4;
#X obj 540 100 print cap-4;
#X connect 7 0 8 0;
#X obj 30 150 r gsr-mag-0;
#X obj 30 180 print gsr-mag-0;
#X connect 9 0 10 0;
#X obj 200 150 r gsr-mag-1;
#X obj 200 180 print gsr-mag-1;
#X connect 11 0 12 0;
#X obj 370 150 r gsr-mag-2;
#X obj 370 180 print gsr-mag-2;
#X connect 13 0 14 0;
#X obj 540 150 r gsr-mag-3;
#X obj 540 180 print gsr-mag-3;
#X connect 15 0 16 0;
#X obj 30 230 r gsr-mag-4;
#X obj 30 260 print gsr-mag-4;
#X connect 17 0 18 0;
#X obj 200 230 r gsr-mag-5;
#X obj 200 260 print gsr-mag-5;
#X connect 19 0 20 0;
