#N canvas 0 0 640 360 12;
#X text 20 18 nodevals: unpack one /shrine/node value list -> normalized cap + 3 gsr-mag.;
#X text 20 36 in: list [stdev carrier m0 m1 m2]. outs: cap(0-1) g0 g1 g2 (0-1). carrier dropped.;
#X obj 30 75 inlet;
#X obj 30 110 unpack f f f f f;
#X obj 30 150 normcap;
#X obj 130 150 normgsr;
#X obj 250 150 normgsr;
#X obj 370 150 normgsr;
#X obj 30 195 outlet;
#X obj 130 195 outlet;
#X obj 250 195 outlet;
#X obj 370 195 outlet;
#X connect 2 0 3 0;
#X connect 3 0 4 0;
#X connect 3 2 5 0;
#X connect 3 3 6 0;
#X connect 3 4 7 0;
#X connect 4 0 8 0;
#X connect 5 0 9 0;
#X connect 6 0 10 0;
#X connect 7 0 11 0;
