#N canvas 0 0 640 360 12;
#X text 20 18 nodevals: unpack one /shrine/node value list -> cap + 3 gsr-mag.;
#X text 20 36 in: list [stdev carrier m0 m1 m2]. outs: cap(0-1) g0 g1 g2 (0-1). carrier dropped.;
#X text 20 54 Firmware sends 0-1 normalized values. clip is a safety clamp.;
#X obj 30 95 inlet;
#X obj 30 130 unpack f f f f f;
#X obj 30 170 clip 0 1;
#X obj 130 170 clip 0 1;
#X obj 250 170 clip 0 1;
#X obj 370 170 clip 0 1;
#X obj 30 215 outlet;
#X obj 130 215 outlet;
#X obj 250 215 outlet;
#X obj 370 215 outlet;
#X connect 3 0 4 0;
#X connect 4 0 5 0;
#X connect 4 2 6 0;
#X connect 4 3 7 0;
#X connect 4 4 8 0;
#X connect 5 0 9 0;
#X connect 6 0 10 0;
#X connect 7 0 11 0;
#X connect 8 0 12 0;
