#N canvas 0 0 450 350 12;
#X obj 10 200 inlet~;
#X obj 10 270 outlet~;
#X obj 10 235 else/eq~ 1000 1 -12;
#X obj 10 45 vsl 20 120 20 20000 1 0 empty empty Freq 0 -9 0 10 #fcfcfc #000000 #000000 5671 1;
#X obj 50 45 vsl 20 120 0.1 30 1 0 empty empty Q 0 -9 0 10 #fcfcfc #000000 #000000 3174 1;
#X obj 120 20 loadbang;
#X obj 120 50 else/args;
#X obj 120 80 unpack 0 0;
#X msg 120 110 set \$1;
#X msg 180 110 set \$1;
#X obj 120 140 else/pack2 0 0;
#X connect 0 0 2 0;
#X connect 2 0 1 0;
#X connect 3 0 2 1;
#X connect 4 0 2 2;
#X connect 5 0 6 0;
#X connect 6 0 7 0;
#X connect 7 0 8 0;
#X connect 7 1 9 0;
#X connect 8 0 3 0;
#X connect 9 0 4 0;
#X connect 8 0 10 0;
#X connect 9 0 10 1;
#X connect 3 0 10 0;
#X connect 4 0 10 1;
#X connect 10 0 6 0;
#X coords 0 0 1 1 90 180 1 0 0;
