#N canvas 0 0 600 620 12;
#X text 22 10 note-send.pd -- gate touch/release into note-on/note-off pairs.;
#X text 22 28 Inlet 0: 1/0 (touch/release). Inlet 1: intensity 0-1. Inlet 2: MIDI pitch (cold).;
#X text 22 46 Outlet 0: pitch+velocity pair. Outlet 1: bang (advance).;
#X obj 40 82 inlet;
#X obj 200 82 inlet;
#X obj 380 82 inlet;
#X text 22 82 gate;
#X text 180 82 intensity;
#X text 360 82 pitch;
#X obj 200 122 * 127;
#X obj 200 162 clip 0 127;
#X obj 200 202 int;
#X obj 200 242 v \$0-velocity;
#X obj 380 122 v \$0-pitch;
#X obj 40 132 sel 0;
#X obj 40 182 v \$0-lastpitch;
#X obj 40 222 pack f 0;
#X obj 140 182 t b b;
#X obj 140 232 t b b;
#X obj 240 272 v \$0-velocity;
#X obj 140 312 v \$0-pitch;
#X obj 140 352 v \$0-lastpitch;
#X obj 240 312 pack f f;
#X obj 180 422 outlet;
#X obj 340 232 outlet;
#X connect 3 0 14 0;
#X connect 4 0 9 0;
#X connect 9 0 10 0;
#X connect 10 0 11 0;
#X connect 11 0 12 0;
#X connect 5 0 13 0;
#X connect 14 0 15 0;
#X connect 15 0 16 0;
#X connect 16 0 23 0;
#X connect 14 1 17 0;
#X connect 17 1 24 0;
#X connect 17 0 18 0;
#X connect 18 1 19 0;
#X connect 19 0 22 1;
#X connect 18 0 20 0;
#X connect 20 0 21 0;
#X connect 20 0 22 0;
#X connect 22 0 23 0;
