#N canvas 0 0 800 940 12;
#X obj 40 150 netreceive -u -b 57120;
#X obj 40 185 oscparse;
#X obj 40 220 list trim;
#X obj 40 255 route shrine;
#X obj 40 290 list trim;
#X obj 40 325 route node;
#X obj 40 365 t a a;
#X obj 300 410 list split 1;
#X obj 300 445 makefilename x%s;
#X obj 300 480 select x0 x1 x2 x3;
#X msg 300 520 0;
#X msg 340 520 1;
#X msg 380 520 2;
#X msg 420 520 3;
#X obj 40 410 list split 1;
#X obj 40 560 list prepend;
#X obj 40 600 route 0 1 2 3;
#X obj 40 645 unpack f f f f f;
#X obj 40 690 clip 0 1;
#X obj 130 690 clip 0 1;
#X obj 220 690 clip 0 1;
#X obj 310 690 clip 0 1;
#X obj 40 735 s cap-1;
#X obj 130 735 s gsr-mag-0;
#X obj 220 735 s gsr-mag-1;
#X obj 310 735 s gsr-mag-2;
#X obj 420 645 unpack f f f f f;
#X obj 420 690 clip 0 1;
#X obj 510 690 clip 0 1;
#X obj 600 690 clip 0 1;
#X obj 690 690 clip 0 1;
#X obj 420 735 s cap-2;
#X obj 510 735 s gsr-mag-3;
#X obj 600 735 s gsr-mag-4;
#X obj 690 735 s gsr-mag-0;
#X obj 40 800 unpack f f f f f;
#X obj 40 845 clip 0 1;
#X obj 130 845 clip 0 1;
#X obj 220 845 clip 0 1;
#X obj 310 845 clip 0 1;
#X obj 40 890 s cap-3;
#X obj 130 890 s gsr-mag-5;
#X obj 220 890 s gsr-mag-1;
#X obj 310 890 s gsr-mag-3;
#X obj 420 800 unpack f f f f f;
#X obj 420 845 clip 0 1;
#X obj 510 845 clip 0 1;
#X obj 600 845 clip 0 1;
#X obj 690 845 clip 0 1;
#X obj 420 890 s cap-4;
#X obj 510 890 s gsr-mag-2;
#X obj 600 890 s gsr-mag-4;
#X obj 690 890 s gsr-mag-5;
#X text 40 20 osc-receive.pd --- OSC input for the Shrine sound engine.;
#X text 40 40 Real contract (edge-node firmware + osc-sim/generator.py):;
#X text 40 58 /shrine/node/{0..3} -> 5 floats: self_stdev(=cap presence) carrier_mag(dropped) gsr_mag0 gsr_mag1 gsr_mag2.;
#X text 40 76 node id 0-indexed -> pad cap-(N+1). The 3 gsr slots map to global pairs via;
#X text 40 94 NODE_GSR_MAPPING = node0:[0 1 2] node1:[3 4 0] node2:[5 1 3] node3:[2 4 5] (see leds/sensor_state.py).;
#X text 40 112 Emits buses cap-1..4 and gsr-mag-0..5 in 0-1. Firmware sends normalized values.;
#X text 470 365 node id arrives as a symbol from oscparse -- convert via makefilename + select then prepend as a float and route.;
#X connect 0 0 1 0;
#X connect 1 0 2 0;
#X connect 2 0 3 0;
#X connect 3 0 4 0;
#X connect 4 0 5 0;
#X connect 5 0 6 0;
#X connect 6 1 7 0;
#X connect 6 0 14 0;
#X connect 7 0 8 0;
#X connect 8 0 9 0;
#X connect 9 0 10 0;
#X connect 9 1 11 0;
#X connect 9 2 12 0;
#X connect 9 3 13 0;
#X connect 10 0 15 1;
#X connect 11 0 15 1;
#X connect 12 0 15 1;
#X connect 13 0 15 1;
#X connect 14 1 15 0;
#X connect 15 0 16 0;
#X connect 16 0 17 0;
#X connect 16 1 26 0;
#X connect 16 2 35 0;
#X connect 16 3 44 0;
#X connect 17 0 18 0;
#X connect 17 2 19 0;
#X connect 17 3 20 0;
#X connect 17 4 21 0;
#X connect 18 0 22 0;
#X connect 19 0 23 0;
#X connect 20 0 24 0;
#X connect 21 0 25 0;
#X connect 26 0 27 0;
#X connect 26 2 28 0;
#X connect 26 3 29 0;
#X connect 26 4 30 0;
#X connect 27 0 31 0;
#X connect 28 0 32 0;
#X connect 29 0 33 0;
#X connect 30 0 34 0;
#X connect 35 0 36 0;
#X connect 35 2 37 0;
#X connect 35 3 38 0;
#X connect 35 4 39 0;
#X connect 36 0 40 0;
#X connect 37 0 41 0;
#X connect 38 0 42 0;
#X connect 39 0 43 0;
#X connect 44 0 45 0;
#X connect 44 2 46 0;
#X connect 44 3 47 0;
#X connect 44 4 48 0;
#X connect 45 0 49 0;
#X connect 46 0 50 0;
#X connect 47 0 51 0;
#X connect 48 0 52 0;
