#N canvas 0 0 900 800 12;
#X text 20 16 osc-send.pd --- forward control signals to LED sidecar via OSC.;
#X text 20 34 Target: 255.255.255.255:9000. Protocol: /leds/* namespace.;
#X text 20 52 Buses: cap-0..3 \, heartbeat-0..3 \, flux-0..3 \, beat-ms.;
#X text 20 70 Wiring into main.pd is out of scope -- Schuyler handles that.;
#X text 20 100 --- per-pad cap (0-1) ---;
#X obj 40 130 r cap-0;
#X msg 40 160 0 \$1;
#X obj 40 190 else/osc.format /leds/cap if;
#X obj 40 220 else/osc.send -h 255.255.255.255 -p 9000;
#X obj 240 130 r cap-1;
#X msg 240 160 1 \$1;
#X obj 240 190 else/osc.format /leds/cap if;
#X obj 240 220 else/osc.send -h 255.255.255.255 -p 9000;
#X obj 440 130 r cap-2;
#X msg 440 160 2 \$1;
#X obj 440 190 else/osc.format /leds/cap if;
#X obj 440 220 else/osc.send -h 255.255.255.255 -p 9000;
#X obj 640 130 r cap-3;
#X msg 640 160 3 \$1;
#X obj 640 190 else/osc.format /leds/cap if;
#X obj 640 220 else/osc.send -h 255.255.255.255 -p 9000;
#X text 20 260 --- per-pad heartbeat (Hz) ---;
#X obj 40 290 r heartbeat-0;
#X msg 40 320 0 \$1;
#X obj 40 350 else/osc.format /leds/heartbeat if;
#X obj 40 380 else/osc.send -h 255.255.255.255 -p 9000;
#X obj 240 290 r heartbeat-1;
#X msg 240 320 1 \$1;
#X obj 240 350 else/osc.format /leds/heartbeat if;
#X obj 240 380 else/osc.send -h 255.255.255.255 -p 9000;
#X obj 440 290 r heartbeat-2;
#X msg 440 320 2 \$1;
#X obj 440 350 else/osc.format /leds/heartbeat if;
#X obj 440 380 else/osc.send -h 255.255.255.255 -p 9000;
#X obj 640 290 r heartbeat-3;
#X msg 640 320 3 \$1;
#X obj 640 350 else/osc.format /leds/heartbeat if;
#X obj 640 380 else/osc.send -h 255.255.255.255 -p 9000;
#X text 20 420 --- per-pad flux (0-1) ---;
#X obj 40 450 r flux-0;
#X msg 40 480 0 \$1;
#X obj 40 510 else/osc.format /leds/flux if;
#X obj 40 540 else/osc.send -h 255.255.255.255 -p 9000;
#X obj 240 450 r flux-1;
#X msg 240 480 1 \$1;
#X obj 240 510 else/osc.format /leds/flux if;
#X obj 240 540 else/osc.send -h 255.255.255.255 -p 9000;
#X obj 440 450 r flux-2;
#X msg 440 480 2 \$1;
#X obj 440 510 else/osc.format /leds/flux if;
#X obj 440 540 else/osc.send -h 255.255.255.255 -p 9000;
#X obj 640 450 r flux-3;
#X msg 640 480 3 \$1;
#X obj 640 510 else/osc.format /leds/flux if;
#X obj 640 540 else/osc.send -h 255.255.255.255 -p 9000;
#X text 20 580 --- tempo (BPM from beat-ms) ---;
#X obj 40 610 r beat-ms;
#X obj 40 640 expr 60000 / max($f1 \, 1);
#X obj 40 670 else/osc.format /leds/tempo f;
#X obj 40 700 else/osc.send -h 255.255.255.255 -p 9000;
#X text 20 740 --- program / palette (inlets for manual wiring) ---;
#X obj 400 610 inlet;
#X obj 400 640 else/osc.format /leds/program s;
#X obj 400 670 else/osc.send -h 255.255.255.255 -p 9000;
#X obj 600 610 inlet;
#X obj 600 640 else/osc.format /leds/palette s;
#X obj 600 670 else/osc.send -h 255.255.255.255 -p 9000;
#X connect 5 0 6 0;
#X connect 6 0 7 0;
#X connect 7 0 8 0;
#X connect 9 0 10 0;
#X connect 10 0 11 0;
#X connect 11 0 12 0;
#X connect 13 0 14 0;
#X connect 14 0 15 0;
#X connect 15 0 16 0;
#X connect 17 0 18 0;
#X connect 18 0 19 0;
#X connect 19 0 20 0;
#X connect 22 0 23 0;
#X connect 23 0 24 0;
#X connect 24 0 25 0;
#X connect 26 0 27 0;
#X connect 27 0 28 0;
#X connect 28 0 29 0;
#X connect 30 0 31 0;
#X connect 31 0 32 0;
#X connect 32 0 33 0;
#X connect 34 0 35 0;
#X connect 35 0 36 0;
#X connect 36 0 37 0;
#X connect 39 0 40 0;
#X connect 40 0 41 0;
#X connect 41 0 42 0;
#X connect 43 0 44 0;
#X connect 44 0 45 0;
#X connect 45 0 46 0;
#X connect 47 0 48 0;
#X connect 48 0 49 0;
#X connect 49 0 50 0;
#X connect 51 0 52 0;
#X connect 52 0 53 0;
#X connect 53 0 54 0;
#X connect 55 0 56 0;
#X connect 56 0 57 0;
#X connect 57 0 58 0;
#X connect 60 0 61 0;
#X connect 61 0 62 0;
#X connect 62 0 63 0;
#X connect 64 0 65 0;
#X connect 65 0 66 0;
