#N canvas 0 0 600 400 12;
#X obj 10 250 inlet~;
#X obj 10 420 outlet~;
#X obj 10 280 else/eq~ 150 1 0;
#X obj 10 310 else/eq~ 400 1 0;
#X obj 10 340 else/eq~ 1000 1 0;
#X obj 10 370 else/eq~ 2000 1 0;
#X obj 10 400 else/eq~ 5000 1 0;
#X obj 10 430 else/eq~ 10000 1 0;
#X obj 10 45 vsl 20 120 -12 12 0 0 empty empty 150 0 -9 0 10 #fcfcfc #000000 #000000 6000 1;
#X obj 50 45 vsl 20 120 -12 12 0 0 empty empty 400 0 -9 0 10 #fcfcfc #000000 #000000 6000 1;
#X obj 90 45 vsl 20 120 -12 12 0 0 empty empty 1k 0 -9 0 10 #fcfcfc #000000 #000000 6000 1;
#X obj 130 45 vsl 20 120 -12 12 0 0 empty empty 2k 0 -9 0 10 #fcfcfc #000000 #000000 6000 1;
#X obj 170 45 vsl 20 120 -12 12 0 0 empty empty 5k 0 -9 0 10 #fcfcfc #000000 #000000 6000 1;
#X obj 210 45 vsl 20 120 -12 12 0 0 empty empty 10k 0 -9 0 10 #fcfcfc #000000 #000000 6000 1;
#X obj 270 20 loadbang;
#X obj 270 50 else/args;
#X obj 270 80 unpack 0 0 0 0 0 0;
#X msg 270 110 set \$1;
#X msg 310 110 set \$1;
#X msg 350 110 set \$1;
#X msg 390 110 set \$1;
#X msg 430 110 set \$1;
#X msg 470 110 set \$1;
#X obj 270 140 else/pack2 0 0 0 0 0 0;
#X connect 0 0 2 0;
#X connect 2 0 3 0;
#X connect 3 0 4 0;
#X connect 4 0 5 0;
#X connect 5 0 6 0;
#X connect 6 0 7 0;
#X connect 7 0 1 0;
#X connect 8 0 2 3;
#X connect 9 0 3 3;
#X connect 10 0 4 3;
#X connect 11 0 5 3;
#X connect 12 0 6 3;
#X connect 13 0 7 3;
#X connect 14 0 15 0;
#X connect 15 0 16 0;
#X connect 16 0 17 0;
#X connect 16 1 18 0;
#X connect 16 2 19 0;
#X connect 16 3 20 0;
#X connect 16 4 21 0;
#X connect 16 5 22 0;
#X connect 17 0 8 0;
#X connect 18 0 9 0;
#X connect 19 0 10 0;
#X connect 20 0 11 0;
#X connect 21 0 12 0;
#X connect 22 0 13 0;
#X connect 17 0 23 0;
#X connect 18 0 23 1;
#X connect 19 0 23 2;
#X connect 20 0 23 3;
#X connect 21 0 23 4;
#X connect 22 0 23 5;
#X connect 8 0 23 0;
#X connect 9 0 23 1;
#X connect 10 0 23 2;
#X connect 11 0 23 3;
#X connect 12 0 23 4;
#X connect 13 0 23 5;
#X connect 23 0 15 0;
#X coords 0 0 1 1 250 180 1 0 0;
