#N canvas 0 39 450 350 12;
#X obj 10 35 nbx 3 18 1.28 128 1 0 empty empty Bank 50 7 0 10 #fcfcfc #000000 #000000 0 256;
#X obj 10 65 nbx 3 18 1.28 128 1 0 empty empty Pgm 50 7 0 10 #fcfcfc #000000 #000000 0 256;
#X obj 200 100 t b f;
#X obj 300 100 t b f;
#X obj 200 140 f 0;
#X obj 300 140 f 0;
#X obj 200 180 t b b;
#X obj 200 220 pack 0 0;
#X msg 200 260 bank \$1 1 \, pgm \$2 1;
#X obj 200 300 outlet;
#X obj 400 20 loadbang;
#X obj 400 50 else/args;
#X obj 400 80 unpack 0 0;
#X msg 400 110 set \$1;
#X msg 340 110 set \$1;
#X obj 400 170 else/pack2 0 0;
#X obj 400 140 t b b;
#X obj 70 7 bng 19 250 50 0 empty empty empty 0 -10 0 12 #fcfcfc #000000 #000000;
#X connect 0 0 2 0;
#X connect 0 0 15 0;
#X connect 1 0 3 0;
#X connect 1 0 15 1;
#X connect 2 0 6 0;
#X connect 2 1 4 1;
#X connect 3 0 6 0;
#X connect 3 1 5 1;
#X connect 4 0 7 0;
#X connect 5 0 7 1;
#X connect 6 0 4 0;
#X connect 6 1 5 0;
#X connect 7 0 8 0;
#X connect 8 0 9 0;
#X connect 10 0 16 0;
#X connect 11 0 12 0;
#X connect 12 0 13 0;
#X connect 12 1 14 0;
#X connect 12 1 5 1;
#X connect 13 0 0 0;
#X connect 13 0 15 0;
#X connect 14 0 1 0;
#X connect 14 0 15 1;
#X connect 15 0 11 0;
#X connect 16 0 0 0;
#X connect 16 1 11 0;
#X connect 17 0 0 0;
#X connect 17 0 1 0;
#X coords 0 0 1 1 100 95 1 0 0;
