#N canvas 0 0 450 350 12;
#X obj 10 35 nbx 3 18 0 128 1 1 empty empty Bank 50 7 0 10 #fcfcfc #000000 #000000 0 256;
#X obj 10 65 nbx 3 18 0 128 1 1 empty empty Pgm 50 7 0 10 #fcfcfc #000000 #000000 0 256;
#X obj 200 100 t b f;
#X obj 300 100 t b f;
#X obj 200 140 f 0;
#X obj 300 140 f 0;
#X obj 200 180 t b b;
#X obj 200 220 pack 0 0;
#X msg 200 260 bank \$1 1 \, pgm \$2 1;
#X obj 200 300 outlet;
#X connect 0 0 2 0;
#X connect 1 0 3 0;
#X connect 2 1 4 1;
#X connect 2 0 6 0;
#X connect 3 1 5 1;
#X connect 3 0 6 0;
#X connect 4 0 7 0;
#X connect 5 0 7 1;
#X connect 6 1 5 0;
#X connect 6 0 4 0;
#X connect 7 0 8 0;
#X connect 8 0 9 0;
#X coords 0 0 1 1 100 95 1 0 0;
