#N canvas 480 81 1252 894 12;
#X obj 245 212 else/sfont~ ../sounds/ToH4.sf2;
#X obj 313 41 else/keyboard 17 80 4 2 0 0 empty empty;
#X obj 244 365 else/out~;
#X obj 445 369 print;
#X msg 129 45 bank 101 1 \, pgm 0 1;
#X obj 143 358 writesf~;
#X obj 104 231 savepanel;
#X obj 101 189 bng 19 250 50 0 empty empty empty 0 -10 0 12 #fcfcfc #000000 #000000;
#X msg 99 286 open \$1;
#X obj 18 469 bng 19 250 50 0 empty empty empty 0 -10 0 12 #fcfcfc #000000 #000000;
#X msg 43 310 start;
#X obj 20 182 bng 19 250 50 0 empty empty empty 0 -10 0 12 #fcfcfc #000000 #000000;
#X msg 20 206 stop;
#X obj 31 377 print \$1;
#X connect 0 0 2 0;
#X connect 0 0 5 0;
#X connect 0 1 2 1;
#X connect 0 1 5 0;
#X connect 0 2 3 0;
#X connect 1 0 0 0;
#X connect 4 0 0 0;
#X connect 6 0 8 0;
#X connect 7 0 6 0;
#X connect 8 0 5 0;
#X connect 9 0 10 0;
#X connect 10 0 5 0;
#X connect 10 0 13 0;
#X connect 11 0 12 0;
#X connect 12 0 5 0;
#X connect 12 0 13 0;
