#N canvas 0 0 500 350 12;
#X obj 10 200 inlet~;
#X obj 10 280 outlet~;
#X obj 10 240 else/plate.rev~;
#X obj 10 45 vsl 20 120 0 1 0 0 empty empty Size 0 -9 0 10 #fcfcfc #000000 #000000 9000 1;
#X obj 55 45 vsl 20 120 0 200 0 0 empty empty Pre 0 -9 0 10 #fcfcfc #000000 #000000 3000 1;
#X obj 100 45 vsl 20 120 0 1 0 0 empty empty Cut 0 -9 0 10 #fcfcfc #000000 #000000 6000 1;
#X obj 145 45 vsl 20 120 0 1 0 0 empty empty Damp 0 -9 0 10 #fcfcfc #000000 #000000 3000 1;
#X obj 190 45 vsl 20 120 0 1 0 0 empty empty Wet 0 -9 0 10 #fcfcfc #000000 #000000 9000 1;
#X msg 10 170 size \$1;
#X msg 55 170 pre \$1;
#X msg 100 170 cutoff \$1;
#X msg 145 170 damp \$1;
#X msg 190 170 wet \$1;
#X obj 260 20 loadbang;
#X obj 260 50 else/args;
#X obj 260 80 unpack 0 0 0 0 0;
#X msg 260 110 set \$1;
#X msg 300 110 set \$1;
#X msg 340 110 set \$1;
#X msg 380 110 set \$1;
#X msg 420 110 set \$1;
#X obj 260 140 else/pack2 0 0 0 0 0;
#X connect 0 0 2 0;
#X connect 2 0 1 0;
#X connect 3 0 8 0;
#X connect 4 0 9 0;
#X connect 5 0 10 0;
#X connect 6 0 11 0;
#X connect 7 0 12 0;
#X connect 8 0 2 0;
#X connect 9 0 2 0;
#X connect 10 0 2 0;
#X connect 11 0 2 0;
#X connect 12 0 2 0;
#X connect 13 0 14 0;
#X connect 14 0 15 0;
#X connect 15 0 16 0;
#X connect 15 1 17 0;
#X connect 15 2 18 0;
#X connect 15 3 19 0;
#X connect 15 4 20 0;
#X connect 16 0 3 0;
#X connect 17 0 4 0;
#X connect 18 0 5 0;
#X connect 19 0 6 0;
#X connect 20 0 7 0;
#X connect 16 0 21 0;
#X connect 17 0 21 1;
#X connect 18 0 21 2;
#X connect 19 0 21 3;
#X connect 20 0 21 4;
#X connect 3 0 21 0;
#X connect 4 0 21 1;
#X connect 5 0 21 2;
#X connect 6 0 21 3;
#X connect 7 0 21 4;
#X connect 21 0 14 0;
#X coords 0 0 1 1 230 180 1 0 0;
