#N canvas 0 0 450 350 12;
#X obj 10 200 inlet~;
#X obj 10 280 outlet~;
#X obj 10 240 else/plate.rev~;
#X obj 10 45 vsl 20 120 0 1 0 1 empty empty Size 0 -9 0 10 #fcfcfc #000000 #000000 9000 1;
#X obj 55 45 vsl 20 120 0 200 0 1 empty empty Pre 0 -9 0 10 #fcfcfc #000000 #000000 3000 1;
#X obj 100 45 vsl 20 120 0 1 0 1 empty empty Cut 0 -9 0 10 #fcfcfc #000000 #000000 6000 1;
#X obj 145 45 vsl 20 120 0 1 0 1 empty empty Damp 0 -9 0 10 #fcfcfc #000000 #000000 3000 1;
#X obj 190 45 vsl 20 120 0 1 0 1 empty empty Wet 0 -9 0 10 #fcfcfc #000000 #000000 9000 1;
#X msg 10 170 size \$1;
#X msg 55 170 pre \$1;
#X msg 100 170 cutoff \$1;
#X msg 145 170 damp \$1;
#X msg 190 170 wet \$1;
#X connect 0 0 2 0;
#X connect 2 0 1 0;
#X connect 3 0 8 0;
#X connect 4 0 9 0;
#X connect 5 0 10 0;
#X connect 6 0 11 0;
#X connect 7 0 12 0;
#X connect 8 0 2 0;
#X connect 9 0 2 0;
#X connect 10 0 2 0;
#X connect 11 0 2 0;
#X connect 12 0 2 0;
#X coords 0 0 1 1 230 180 1 0 0;
