#N canvas 0 0 680 560 12;
#X text 20 16 refire.pd -- beat-driven re-fire gate. First note fires immediately on touch \;
#X text 20 34 a held contact re-advances the walk on the shared grid. Sounds like rhythm \, not chimes.;
#X text 20 52 Inlet 0: gate (1 touch / 0 release). Inlet 1: phase (ticks \, cold \, default 0).;
#X text 20 70 Outlet 0: bang (advance the walk). Consumes r tickcount + r refire (ticks-per-refire).;
#X obj 40 130 inlet;
#X obj 230 130 inlet;
#X obj 40 180 sel 1 0;
#X obj 40 230 t b b;
#X msg 140 280 1;
#X msg 60 280 0;
#X obj 400 130 r tickcount;
#X obj 400 220 mod 4;
#X obj 520 180 r refire;
#X obj 400 270 - 0;
#X obj 400 320 sel 0;
#X obj 400 380 spigot;
#X obj 40 440 outlet;
#X connect 4 0 6 0;
#X connect 5 0 13 1;
#X connect 6 0 7 0;
#X connect 6 1 9 0;
#X connect 7 0 16 0;
#X connect 7 1 8 0;
#X connect 8 0 15 1;
#X connect 9 0 15 1;
#X connect 10 0 11 0;
#X connect 12 0 11 1;
#X connect 11 0 13 0;
#X connect 13 0 14 0;
#X connect 14 0 15 0;
#X connect 15 0 16 0;
