#N canvas 0 0 720 460 12;
#X text 20 16 restless.pd -- host-derived 'restlessness' proxy (replaces absent per-pair gsr-stdev).;
#X text 20 34 inlet: a 0-1 control stream (cap or gsr-mag). outlet: 0-1 fluctuation sampled ~30 Hz.;
#X obj 30 80 inlet;
#X obj 30 115 sig~;
#X connect 2 0 3 0;
#X obj 30 150 lop~ 0.5;
#X connect 3 0 4 0;
#X obj 30 185 -~;
#X connect 3 0 5 0;
#X connect 4 0 5 1;
#X obj 30 220 abs~;
#X connect 5 0 6 0;
#X obj 30 255 lop~ 3;
#X connect 6 0 7 0;
#X obj 30 290 *~ 6;
#X connect 7 0 8 0;
#X obj 30 325 clip~ 0 1;
#X connect 8 0 9 0;
#X obj 30 360 snapshot~;
#X connect 9 0 10 0;
#X obj 250 230 loadbang;
#X msg 250 265 1;
#X obj 250 300 metro 33;
#X connect 11 0 12 0;
#X connect 12 0 13 0;
#X connect 13 0 10 0;
#X obj 30 395 outlet;
#X connect 10 0 14 0;
