#N canvas 1490 155 2188 1312 12;
#X obj 117 454 else/out~;
#X obj 63 51 else/note.in;
#X floatatom 140 11 5 0 0 0 - - - 0;
#X msg 599 134 bank \$1 1;
#X obj 766 71 bng 20 250 50 0 empty empty empty 0 -10 0 12 #fcfcfc #000000 #000000;
#X obj 765 118 openpanel;
#X msg 744 175 open \$1;
#X obj 213 255 else/sfont~;
#X msg 31 149 note \$1 \$2 1;
#X msg 147 146 note \$1 \$2 2;
#X obj 76 90 trigger l l;
#X msg 408 133 pgm \$1 1;
#X msg 482 132 pgm \$1 2;
#X msg 679 135 bank \$1 2;
#X msg 198 44 bend 0 1;
#X msg 296 143 bend \$1 2;
#X obj 403 317 print pgm;
#X obj 298 47 snapshot~;
#X obj 358 5 metro 25;
#X obj 105 399 monitor-filter;
#X obj 229 401 monitor-filter;
#X obj 1263 516 else/pgm.in;
#X obj 444 15 else/pgm.in;
#X floatatom 575 10 5 0 0 0 - - - 0;
#X obj 444 86 trigger f;
#X obj 444 47 + -1;
#X obj 532 85 print;
#X obj 296 113 + 12;
#X floatatom 389 49 5 0 0 0 - - - 0;
#X floatatom 676 87 5 0 0 0 - - - 0;
#X obj 276 8 osc~ 1;
#X obj 53 342 else/echo.rev~ 8 0.5;
#X obj 225 346 else/echo.rev~ 8 0.5;
#X obj 300 81 * 100;
#X connect 1 0 10 0;
#X connect 2 0 1 1;
#X connect 3 0 7 0;
#X connect 4 0 5 0;
#X connect 5 0 6 0;
#X connect 6 0 7 0;
#X connect 7 0 31 0;
#X connect 7 1 32 0;
#X connect 7 2 16 0;
#X connect 8 0 7 0;
#X connect 9 0 7 0;
#X connect 10 0 8 0;
#X connect 10 1 9 0;
#X connect 11 0 7 0;
#X connect 12 0 7 0;
#X connect 13 0 7 0;
#X connect 14 0 7 0;
#X connect 15 0 7 0;
#X connect 17 0 33 0;
#X connect 18 0 17 0;
#X connect 19 0 0 0;
#X connect 20 0 0 1;
#X connect 22 0 25 0;
#X connect 23 0 22 1;
#X connect 24 0 11 0;
#X connect 24 0 12 0;
#X connect 25 0 24 0;
#X connect 25 0 26 0;
#X connect 27 0 15 0;
#X connect 28 0 24 0;
#X connect 29 0 3 0;
#X connect 29 0 13 0;
#X connect 30 0 17 0;
#X connect 31 0 19 0;
#X connect 32 0 20 0;
#X connect 33 0 27 0;
