#N canvas 0 0 760 420 12;
#X text 20 16 sfont-host.pd -- DRAFT (requires ELSE [sfont~] on Pd 0.56+). Not yet verified on-target.;
#X text 20 34 One SoundFont synth for all six melodic voices. Voices send MIDI via [s voice-midi].;
#X text 20 52 TODO: confirm [sfont~] message syntax against its help patch (load / note / ctl / pgm).;
#X obj 30 110 r voice-midi;
#X obj 30 150 sfont~;
#X obj 30 200 outlet~;
#X obj 130 200 outlet~;
#X obj 300 90 loadbang;
#X msg 300 125 load ./samples/choir.sf2;
#X text 300 160 TODO: drop a real GM choir/organ .sf2 in pd/samples/ and set this path.;
#X connect 3 0 4 0;
#X connect 4 0 5 0;
#X connect 4 1 6 0;
#X connect 7 0 8 0;
#X connect 8 0 4 0;
