#N canvas 274 89 1132 753 12;
#X obj 152 274 dac~ 1 2 3 4;
#X obj 59 27 bng 20 250 50 0 empty empty empty 0 -10 0 12 #fcfcfc #000000 #000000;
#X msg 33 209 start;
#X obj 325 60 else/play.file~;
#X msg 374 41 start;
#X obj 142 169 else/play.file~ 2 ../sounds/shipping-forecast 1 1;
#X connect 1 0 2 0;
#X connect 2 0 5 0;
#X connect 3 1 4 0;
#X connect 4 0 3 0;
#X connect 5 0 0 0;
#X connect 5 0 0 1;
#X connect 5 1 2 0;
#X connect 5 1 0 2;
#X connect 5 1 0 3;
