#N canvas 68 212 1410 1398 12;
#X obj 249 545 else/out~;
#X obj 120 460 monitor-filter;
#X obj 400 460 monitor-filter;
#N canvas 912 151 1844 1400 brent 1;
#X obj 205 25 inlet;
#X obj 753 28 inlet;
#X obj 22 8 loadbang;
#X obj 296 652 outlet~;
#X obj 296 546 else/chorus~;
#X text 714 28 Rate;
#X text 167 25 Note;
#X obj 296 584 else/plate.rev~;
#X text 259 25 Intensity;
#X obj 337 25 inlet;
#X obj 337 56 * 127;
#X obj 337 90 int;
#X msg 336 163 ctl \$1 11 1;
#X obj 337 127 change;
#X obj 213 97 print brent;
#X obj 598 292 vsl 20 170 0 5 0 1 empty empty Depth 0 -9 0 12 #fcfcfc #000000 #000000 13100 1;
#X obj 648 296 vsl 20 170 0 1 0 1 empty empty Wet 0 -9 0 12 #fcfcfc #000000 #000000 11400 1;
#X obj 22 47 t b b;
#X obj 101 8 bng 20 250 50 0 empty empty empty 0 -10 0 12 #fcfcfc #000000 #000000;
#X obj 220 425 else/phaser~ 8 0.5 0.5;
#X obj 277 336 else/rescale~ 100 800;
#X obj 330 247 print pgm;
#X obj 132 205 else/sfont~ /usr/share/sounds/sf2/FluidR3_GM.sf2;
#X msg 36 101 bank 0 1 \, pgm 16 1;
#X obj 278 289 osc~ 0.1;
#X msg 132 155 note \$1 \$2 1;
#X connect 0 0 14 0;
#X connect 0 0 25 0;
#X connect 1 0 4 1;
#X connect 2 0 17 0;
#X connect 4 0 7 0;
#X connect 7 0 3 0;
#X connect 9 0 10 0;
#X connect 10 0 11 0;
#X connect 11 0 13 0;
#X connect 12 0 22 0;
#X connect 13 0 12 0;
#X connect 15 0 4 2;
#X connect 16 0 4 3;
#X connect 17 1 23 0;
#X connect 18 0 17 0;
#X connect 19 0 4 0;
#X connect 20 0 19 1;
#X connect 22 0 19 0;
#X connect 22 2 21 0;
#X connect 23 0 22 0;
#X connect 24 0 20 0;
#X connect 25 0 22 0;
#X restore 120 370 pd brent;
#N canvas 379 92 1484 1400 jeanne 0;
#X obj 205 25 inlet;
#X obj 753 28 inlet;
#X obj 277 708 outlet~;
#X obj 267 553 else/chorus~;
#X text 714 28 Rate;
#X text 167 25 Note;
#X text 259 25 Intensity;
#X obj 337 25 inlet;
#X obj 337 56 * 127;
#X obj 337 90 int;
#X msg 336 163 ctl \$1 11 1;
#X obj 337 127 change;
#X obj 602 264 vsl 20 170 0 5 0 1 empty empty Depth 0 -9 0 12 #fcfcfc #000000 #000000 5200 1;
#X obj 647 295 vsl 20 170 0 1 0 1 empty empty Wet 0 -9 0 12 #fcfcfc #000000 #000000 11800 1;
#X obj 277 336 else/rescale~ 100 800;
#X obj 132 205 else/sfont~ /usr/share/sounds/sf2/FluidR3_GM.sf2;
#X obj 215 97 print jeanne;
#X obj 330 247 print pgm;
#X obj 220 425 else/phaser~ 8 0.1 0.25;
#X obj 62 320 else/highshelf~ 5000 0.7 -3;
#X msg 36 101 bank 0 1 \, pgm \$1 1;
#X obj 278 289 osc~ 0.1;
#X obj 33 36 nbx 5 18 0 128 0 1 empty empty Pgm 0 -10 0 12 #fcfcfc #000000 #000000 78 256;
#X msg 132 155 note \$1 \$2 1;
#X connect 0 0 16 0;
#X connect 0 0 23 0;
#X connect 1 0 3 1;
#X connect 3 0 2 0;
#X connect 7 0 8 0;
#X connect 8 0 9 0;
#X connect 9 0 11 0;
#X connect 10 0 15 0;
#X connect 11 0 10 0;
#X connect 12 0 3 2;
#X connect 13 0 3 3;
#X connect 14 0 18 1;
#X connect 15 0 19 0;
#X connect 15 2 17 0;
#X connect 18 0 3 0;
#X connect 19 0 18 0;
#X connect 20 0 15 0;
#X connect 21 0 14 0;
#X connect 22 0 20 0;
#X connect 23 0 15 0;
#X restore 400 370 pd jeanne;
#X obj 650 40 osc-receive;
#X obj 50 50 r cap-0;
#X obj 50 110 cap-trigger 0.2;
#X obj 250 50 loadbang;
#X msg 180 85 60;
#X msg 430 85 72;
#X obj 50 210 r cap-0;
#X obj 50 260 heartbeat;
#X obj 350 50 r cap-1;
#X obj 350 110 cap-trigger 0.2;
#X obj 350 210 r cap-1;
#X obj 350 260 heartbeat;
#X obj 498 205 print jeanne int;
#X obj 263 340 print jeanne beat;
#X connect 1 0 0 0;
#X connect 2 0 0 1;
#X connect 3 0 1 0;
#X connect 4 0 2 0;
#X connect 6 0 7 0;
#X connect 7 0 3 0;
#X connect 7 1 3 1;
#X connect 8 0 9 0;
#X connect 8 0 10 0;
#X connect 9 0 7 1;
#X connect 10 0 14 1;
#X connect 11 0 12 0;
#X connect 12 0 3 2;
#X connect 13 0 14 0;
#X connect 14 0 4 0;
#X connect 14 1 4 1;
#X connect 14 1 17 0;
#X connect 15 0 16 0;
#X connect 16 0 4 2;
#X connect 16 0 18 0;
